%TF.GenerationSoftware,KiCad,Pcbnew,(6.0.2)*%
%TF.CreationDate,2022-07-19T18:31:23-05:00*%
%TF.ProjectId,PXT6-3,50585436-2d33-42e6-9b69-6361645f7063,rev?*%
%TF.SameCoordinates,Original*%
%TF.FileFunction,Soldermask,Top*%
%TF.FilePolarity,Negative*%
%FSLAX46Y46*%
G04 Gerber Fmt 4.6, Leading zero omitted, Abs format (unit mm)*
G04 Created by KiCad (PCBNEW (6.0.2)) date 2022-07-19 18:31:23*
%MOMM*%
%LPD*%
G01*
G04 APERTURE LIST*
%ADD10C,0.635000*%
%ADD11C,0.000000*%
%ADD12C,2.080000*%
%ADD13C,0.750000*%
%ADD14C,0.675000*%
%ADD15C,0.695000*%
%ADD16C,1.900000*%
%ADD17C,0.975000*%
%ADD18C,1.885000*%
G04 APERTURE END LIST*
D10*
X121159750Y-136285000D02*
G75*
G03*
X121159750Y-136285000I-317500J0D01*
G01*
D11*
G36*
X142306050Y-114570100D02*
G01*
X141746050Y-114570100D01*
X141746050Y-112320100D01*
X142306050Y-112320100D01*
X142306050Y-114570100D01*
G37*
G36*
X139384150Y-89986900D02*
G01*
X138634150Y-89986900D01*
X138634150Y-88126900D01*
X139384150Y-88126900D01*
X139384150Y-89986900D01*
G37*
G36*
X145734150Y-89986900D02*
G01*
X144984150Y-89986900D01*
X144984150Y-88126900D01*
X145734150Y-88126900D01*
X145734150Y-89986900D01*
G37*
D12*
X165091950Y-139407900D02*
G75*
G03*
X165091950Y-139407900I-1040000J0D01*
G01*
D11*
G36*
X129741350Y-123150100D02*
G01*
X127491350Y-123150100D01*
X127491350Y-122590100D01*
X129741350Y-122590100D01*
X129741350Y-123150100D01*
G37*
G36*
X153354150Y-89986900D02*
G01*
X152604150Y-89986900D01*
X152604150Y-88126900D01*
X153354150Y-88126900D01*
X153354150Y-89986900D01*
G37*
G36*
X119406350Y-125800100D02*
G01*
X118846350Y-125800100D01*
X118846350Y-123550100D01*
X119406350Y-123550100D01*
X119406350Y-125800100D01*
G37*
D13*
X131864750Y-55182200D02*
G75*
G03*
X131864750Y-55182200I-375000J0D01*
G01*
D11*
G36*
X116866350Y-125800100D02*
G01*
X116306350Y-125800100D01*
X116306350Y-123550100D01*
X116866350Y-123550100D01*
X116866350Y-125800100D01*
G37*
D14*
X124185950Y-81464100D02*
G75*
G03*
X124185950Y-81464100I-337500J0D01*
G01*
D10*
X118609750Y-140134700D02*
G75*
G03*
X118609750Y-140134700I-317500J0D01*
G01*
D11*
G36*
X151672150Y-71767600D02*
G01*
X151112150Y-71767600D01*
X151112150Y-69467600D01*
X151672150Y-69467600D01*
X151672150Y-71767600D01*
G37*
D10*
X127500050Y-142039700D02*
G75*
G03*
X127500050Y-142039700I-317500J0D01*
G01*
D11*
G36*
X116866350Y-125800100D02*
G01*
X116306350Y-125800100D01*
X116306350Y-123550100D01*
X116866350Y-123550100D01*
X116866350Y-125800100D01*
G37*
G36*
X155181050Y-121880100D02*
G01*
X152931050Y-121880100D01*
X152931050Y-121320100D01*
X155181050Y-121320100D01*
X155181050Y-121880100D01*
G37*
G36*
X129741350Y-116800100D02*
G01*
X127491350Y-116800100D01*
X127491350Y-116240100D01*
X129741350Y-116240100D01*
X129741350Y-116800100D01*
G37*
D14*
X130913450Y-111480400D02*
G75*
G03*
X130913450Y-111480400I-337500J0D01*
G01*
D11*
G36*
X151196050Y-125800100D02*
G01*
X150636050Y-125800100D01*
X150636050Y-123550100D01*
X151196050Y-123550100D01*
X151196050Y-125800100D01*
G37*
G36*
X152084150Y-89986900D02*
G01*
X151334150Y-89986900D01*
X151334150Y-88126900D01*
X152084150Y-88126900D01*
X152084150Y-89986900D01*
G37*
G36*
X152942150Y-71767600D02*
G01*
X152382150Y-71767600D01*
X152382150Y-69467600D01*
X152942150Y-69467600D01*
X152942150Y-71767600D01*
G37*
D14*
X166651650Y-106348200D02*
G75*
G03*
X166651650Y-106348200I-337500J0D01*
G01*
D11*
G36*
X121946350Y-114570100D02*
G01*
X121386350Y-114570100D01*
X121386350Y-112320100D01*
X121946350Y-112320100D01*
X121946350Y-114570100D01*
G37*
G36*
X159662150Y-68857600D02*
G01*
X157362150Y-68857600D01*
X157362150Y-68297600D01*
X159662150Y-68297600D01*
X159662150Y-68857600D01*
G37*
G36*
X120676350Y-125800100D02*
G01*
X120116350Y-125800100D01*
X120116350Y-123550100D01*
X120676350Y-123550100D01*
X120676350Y-125800100D01*
G37*
G36*
X147962150Y-67587600D02*
G01*
X145662150Y-67587600D01*
X145662150Y-67027600D01*
X147962150Y-67027600D01*
X147962150Y-67587600D01*
G37*
G36*
X152084150Y-103956900D02*
G01*
X151334150Y-103956900D01*
X151334150Y-102096900D01*
X152084150Y-102096900D01*
X152084150Y-103956900D01*
G37*
G36*
X149926050Y-114570100D02*
G01*
X149366050Y-114570100D01*
X149366050Y-112320100D01*
X149926050Y-112320100D01*
X149926050Y-114570100D01*
G37*
D13*
X169482550Y-78356600D02*
G75*
G03*
X169482550Y-78356600I-375000J0D01*
G01*
X131864750Y-70662200D02*
G75*
G03*
X131864750Y-70662200I-375000J0D01*
G01*
D14*
X166254750Y-122461300D02*
G75*
G03*
X166254750Y-122461300I-337500J0D01*
G01*
D10*
X122400050Y-138190000D02*
G75*
G03*
X122400050Y-138190000I-317500J0D01*
G01*
D13*
X169482550Y-70706600D02*
G75*
G03*
X169482550Y-70706600I-375000J0D01*
G01*
D11*
G36*
X140654150Y-103956900D02*
G01*
X139904150Y-103956900D01*
X139904150Y-102096900D01*
X140654150Y-102096900D01*
X140654150Y-103956900D01*
G37*
D10*
X128809750Y-136285000D02*
G75*
G03*
X128809750Y-136285000I-317500J0D01*
G01*
D11*
G36*
X129741350Y-119340100D02*
G01*
X127491350Y-119340100D01*
X127491350Y-118780100D01*
X129741350Y-118780100D01*
X129741350Y-119340100D01*
G37*
G36*
X159662150Y-67587600D02*
G01*
X157362150Y-67587600D01*
X157362150Y-67027600D01*
X159662150Y-67027600D01*
X159662150Y-67587600D01*
G37*
G36*
X147962150Y-66317600D02*
G01*
X145662150Y-66317600D01*
X145662150Y-65757600D01*
X147962150Y-65757600D01*
X147962150Y-66317600D01*
G37*
D10*
X131359750Y-136285000D02*
G75*
G03*
X131359750Y-136285000I-317500J0D01*
G01*
D11*
G36*
X149544150Y-89986900D02*
G01*
X148794150Y-89986900D01*
X148794150Y-88126900D01*
X149544150Y-88126900D01*
X149544150Y-89986900D01*
G37*
G36*
X155181050Y-116800100D02*
G01*
X152931050Y-116800100D01*
X152931050Y-116240100D01*
X155181050Y-116240100D01*
X155181050Y-116800100D01*
G37*
G36*
X155181050Y-115530100D02*
G01*
X152931050Y-115530100D01*
X152931050Y-114970100D01*
X155181050Y-114970100D01*
X155181050Y-115530100D01*
G37*
D14*
X141113450Y-126680700D02*
G75*
G03*
X141113450Y-126680700I-337500J0D01*
G01*
D11*
G36*
X115841350Y-123150100D02*
G01*
X113591350Y-123150100D01*
X113591350Y-122590100D01*
X115841350Y-122590100D01*
X115841350Y-123150100D01*
G37*
G36*
X159662150Y-68857600D02*
G01*
X157362150Y-68857600D01*
X157362150Y-68297600D01*
X159662150Y-68297600D01*
X159662150Y-68857600D01*
G37*
D13*
X124244750Y-57762200D02*
G75*
G03*
X124244750Y-57762200I-375000J0D01*
G01*
D14*
X151313450Y-111480400D02*
G75*
G03*
X151313450Y-111480400I-337500J0D01*
G01*
D11*
G36*
X148480950Y-95498800D02*
G01*
X146080950Y-95498800D01*
X146080950Y-95248800D01*
X148480950Y-95248800D01*
X148480950Y-95498800D01*
G37*
G36*
X143194150Y-89986900D02*
G01*
X142444150Y-89986900D01*
X142444150Y-88126900D01*
X143194150Y-88126900D01*
X143194150Y-89986900D01*
G37*
D13*
X161862550Y-65606600D02*
G75*
G03*
X161862550Y-65606600I-375000J0D01*
G01*
X136587550Y-73281900D02*
G75*
G03*
X136587550Y-73281900I-375000J0D01*
G01*
D11*
G36*
X155482150Y-71767600D02*
G01*
X154922150Y-71767600D01*
X154922150Y-69467600D01*
X155482150Y-69467600D01*
X155482150Y-71767600D01*
G37*
D10*
X124950050Y-142039700D02*
G75*
G03*
X124950050Y-142039700I-317500J0D01*
G01*
D13*
X131864750Y-65502200D02*
G75*
G03*
X131864750Y-65502200I-375000J0D01*
G01*
D11*
G36*
X141281050Y-123150100D02*
G01*
X139031050Y-123150100D01*
X139031050Y-122590100D01*
X141281050Y-122590100D01*
X141281050Y-123150100D01*
G37*
G36*
X149132150Y-71767600D02*
G01*
X148572150Y-71767600D01*
X148572150Y-69467600D01*
X149132150Y-69467600D01*
X149132150Y-71767600D01*
G37*
G36*
X144846050Y-125800100D02*
G01*
X144286050Y-125800100D01*
X144286050Y-123550100D01*
X144846050Y-123550100D01*
X144846050Y-125800100D01*
G37*
G36*
X127530950Y-96998800D02*
G01*
X125130950Y-96998800D01*
X125130950Y-96748800D01*
X127530950Y-96748800D01*
X127530950Y-96998800D01*
G37*
G36*
X144464150Y-89986900D02*
G01*
X143714150Y-89986900D01*
X143714150Y-88126900D01*
X144464150Y-88126900D01*
X144464150Y-89986900D01*
G37*
G36*
X148480950Y-95998800D02*
G01*
X146080950Y-95998800D01*
X146080950Y-95748800D01*
X148480950Y-95748800D01*
X148480950Y-95998800D01*
G37*
D14*
X128363450Y-126680700D02*
G75*
G03*
X128363450Y-126680700I-337500J0D01*
G01*
D11*
G36*
X147962150Y-61237600D02*
G01*
X145662150Y-61237600D01*
X145662150Y-60677600D01*
X147962150Y-60677600D01*
X147962150Y-61237600D01*
G37*
G36*
X144846050Y-114570100D02*
G01*
X144286050Y-114570100D01*
X144286050Y-112320100D01*
X144846050Y-112320100D01*
X144846050Y-114570100D01*
G37*
G36*
X152466050Y-114570100D02*
G01*
X151906050Y-114570100D01*
X151906050Y-112320100D01*
X152466050Y-112320100D01*
X152466050Y-114570100D01*
G37*
G36*
X147962150Y-68857600D02*
G01*
X145662150Y-68857600D01*
X145662150Y-68297600D01*
X147962150Y-68297600D01*
X147962150Y-68857600D01*
G37*
G36*
X139384150Y-103956900D02*
G01*
X138634150Y-103956900D01*
X138634150Y-102096900D01*
X139384150Y-102096900D01*
X139384150Y-103956900D01*
G37*
G36*
X141281050Y-120610100D02*
G01*
X139031050Y-120610100D01*
X139031050Y-120050100D01*
X141281050Y-120050100D01*
X141281050Y-120610100D01*
G37*
G36*
X148480950Y-97998800D02*
G01*
X146080950Y-97998800D01*
X146080950Y-97748800D01*
X148480950Y-97748800D01*
X148480950Y-97998800D01*
G37*
D14*
X129980350Y-46221600D02*
G75*
G03*
X129980350Y-46221600I-337500J0D01*
G01*
D10*
X158100050Y-142039700D02*
G75*
G03*
X158100050Y-142039700I-317500J0D01*
G01*
D14*
X123263450Y-111480400D02*
G75*
G03*
X123263450Y-111480400I-337500J0D01*
G01*
D10*
X140250050Y-138190000D02*
G75*
G03*
X140250050Y-138190000I-317500J0D01*
G01*
D11*
G36*
X148480950Y-93498800D02*
G01*
X146080950Y-93498800D01*
X146080950Y-93248800D01*
X148480950Y-93248800D01*
X148480950Y-93498800D01*
G37*
G36*
X152466050Y-114570100D02*
G01*
X151906050Y-114570100D01*
X151906050Y-112320100D01*
X152466050Y-112320100D01*
X152466050Y-114570100D01*
G37*
G36*
X115841350Y-115530100D02*
G01*
X113591350Y-115530100D01*
X113591350Y-114970100D01*
X115841350Y-114970100D01*
X115841350Y-115530100D01*
G37*
G36*
X159662150Y-66317600D02*
G01*
X157362150Y-66317600D01*
X157362150Y-65757600D01*
X159662150Y-65757600D01*
X159662150Y-66317600D01*
G37*
G36*
X152084150Y-89986900D02*
G01*
X151334150Y-89986900D01*
X151334150Y-88126900D01*
X152084150Y-88126900D01*
X152084150Y-89986900D01*
G37*
D13*
X144207550Y-55221900D02*
G75*
G03*
X144207550Y-55221900I-375000J0D01*
G01*
D10*
X144109750Y-140134700D02*
G75*
G03*
X144109750Y-140134700I-317500J0D01*
G01*
D14*
X136013450Y-126680700D02*
G75*
G03*
X136013450Y-126680700I-337500J0D01*
G01*
D11*
G36*
X141924150Y-89986900D02*
G01*
X141174150Y-89986900D01*
X141174150Y-88126900D01*
X141924150Y-88126900D01*
X141924150Y-89986900D01*
G37*
G36*
X147962150Y-63777600D02*
G01*
X145662150Y-63777600D01*
X145662150Y-63217600D01*
X147962150Y-63217600D01*
X147962150Y-63777600D01*
G37*
G36*
X127530950Y-97498800D02*
G01*
X125130950Y-97498800D01*
X125130950Y-97248800D01*
X127530950Y-97248800D01*
X127530950Y-97498800D01*
G37*
D14*
X120713450Y-111480400D02*
G75*
G03*
X120713450Y-111480400I-337500J0D01*
G01*
D11*
G36*
X147962150Y-62507600D02*
G01*
X145662150Y-62507600D01*
X145662150Y-61947600D01*
X147962150Y-61947600D01*
X147962150Y-62507600D01*
G37*
G36*
X148480950Y-94498800D02*
G01*
X146080950Y-94498800D01*
X146080950Y-94248800D01*
X148480950Y-94248800D01*
X148480950Y-94498800D01*
G37*
G36*
X129741350Y-116800100D02*
G01*
X127491350Y-116800100D01*
X127491350Y-116240100D01*
X129741350Y-116240100D01*
X129741350Y-116800100D01*
G37*
G36*
X159662150Y-62507600D02*
G01*
X157362150Y-62507600D01*
X157362150Y-61947600D01*
X159662150Y-61947600D01*
X159662150Y-62507600D01*
G37*
G36*
X116866350Y-114570100D02*
G01*
X116306350Y-114570100D01*
X116306350Y-112320100D01*
X116866350Y-112320100D01*
X116866350Y-114570100D01*
G37*
G36*
X147962150Y-66317600D02*
G01*
X145662150Y-66317600D01*
X145662150Y-65757600D01*
X147962150Y-65757600D01*
X147962150Y-66317600D01*
G37*
G36*
X127530950Y-95498800D02*
G01*
X125130950Y-95498800D01*
X125130950Y-95248800D01*
X127530950Y-95248800D01*
X127530950Y-95498800D01*
G37*
D13*
X161862550Y-57956600D02*
G75*
G03*
X161862550Y-57956600I-375000J0D01*
G01*
D11*
G36*
X124486350Y-114570100D02*
G01*
X123926350Y-114570100D01*
X123926350Y-112320100D01*
X124486350Y-112320100D01*
X124486350Y-114570100D01*
G37*
G36*
X148274150Y-89986900D02*
G01*
X147524150Y-89986900D01*
X147524150Y-88126900D01*
X148274150Y-88126900D01*
X148274150Y-89986900D01*
G37*
D10*
X145350050Y-138190000D02*
G75*
G03*
X145350050Y-138190000I-317500J0D01*
G01*
D11*
G36*
X127530950Y-98998800D02*
G01*
X125130950Y-98998800D01*
X125130950Y-98748800D01*
X127530950Y-98748800D01*
X127530950Y-98998800D01*
G37*
G36*
X129741350Y-115530100D02*
G01*
X127491350Y-115530100D01*
X127491350Y-114970100D01*
X129741350Y-114970100D01*
X129741350Y-115530100D01*
G37*
D15*
X117474750Y-67834100D02*
G75*
G03*
X117474750Y-67834100I-347500J0D01*
G01*
D11*
G36*
X127530950Y-96498800D02*
G01*
X125130950Y-96498800D01*
X125130950Y-96248800D01*
X127530950Y-96248800D01*
X127530950Y-96498800D01*
G37*
D10*
X130050050Y-138190000D02*
G75*
G03*
X130050050Y-138190000I-317500J0D01*
G01*
D11*
G36*
X148480950Y-93998800D02*
G01*
X146080950Y-93998800D01*
X146080950Y-93748800D01*
X148480950Y-93748800D01*
X148480950Y-93998800D01*
G37*
D13*
X169482550Y-57956600D02*
G75*
G03*
X169482550Y-57956600I-375000J0D01*
G01*
D11*
G36*
X127530950Y-97998800D02*
G01*
X125130950Y-97998800D01*
X125130950Y-97748800D01*
X127530950Y-97748800D01*
X127530950Y-97998800D01*
G37*
D13*
X131864750Y-75822200D02*
G75*
G03*
X131864750Y-75822200I-375000J0D01*
G01*
D10*
X149209750Y-140134700D02*
G75*
G03*
X149209750Y-140134700I-317500J0D01*
G01*
D11*
G36*
X149926050Y-125800100D02*
G01*
X149366050Y-125800100D01*
X149366050Y-123550100D01*
X149926050Y-123550100D01*
X149926050Y-125800100D01*
G37*
G36*
X124486350Y-125800100D02*
G01*
X123926350Y-125800100D01*
X123926350Y-123550100D01*
X124486350Y-123550100D01*
X124486350Y-125800100D01*
G37*
D14*
X136449450Y-82099100D02*
G75*
G03*
X136449450Y-82099100I-337500J0D01*
G01*
D11*
G36*
X159662150Y-67587600D02*
G01*
X157362150Y-67587600D01*
X157362150Y-67027600D01*
X159662150Y-67027600D01*
X159662150Y-67587600D01*
G37*
G36*
X159662150Y-65047600D02*
G01*
X157362150Y-65047600D01*
X157362150Y-64487600D01*
X159662150Y-64487600D01*
X159662150Y-65047600D01*
G37*
D10*
X151759750Y-140134700D02*
G75*
G03*
X151759750Y-140134700I-317500J0D01*
G01*
D11*
G36*
X138114150Y-103956900D02*
G01*
X137364150Y-103956900D01*
X137364150Y-102096900D01*
X138114150Y-102096900D01*
X138114150Y-103956900D01*
G37*
G36*
X147962150Y-67587600D02*
G01*
X145662150Y-67587600D01*
X145662150Y-67027600D01*
X147962150Y-67027600D01*
X147962150Y-67587600D01*
G37*
D10*
X146659750Y-136285000D02*
G75*
G03*
X146659750Y-136285000I-317500J0D01*
G01*
D11*
G36*
X115841350Y-120610100D02*
G01*
X113591350Y-120610100D01*
X113591350Y-120050100D01*
X115841350Y-120050100D01*
X115841350Y-120610100D01*
G37*
D10*
X154309750Y-140134700D02*
G75*
G03*
X154309750Y-140134700I-317500J0D01*
G01*
X150450050Y-142039700D02*
G75*
G03*
X150450050Y-142039700I-317500J0D01*
G01*
D11*
G36*
X149544150Y-103956900D02*
G01*
X148794150Y-103956900D01*
X148794150Y-102096900D01*
X149544150Y-102096900D01*
X149544150Y-103956900D01*
G37*
D10*
X117300050Y-142039700D02*
G75*
G03*
X117300050Y-142039700I-317500J0D01*
G01*
X127500050Y-138190000D02*
G75*
G03*
X127500050Y-138190000I-317500J0D01*
G01*
D11*
G36*
X142306050Y-114570100D02*
G01*
X141746050Y-114570100D01*
X141746050Y-112320100D01*
X142306050Y-112320100D01*
X142306050Y-114570100D01*
G37*
G36*
X150814150Y-89986900D02*
G01*
X150064150Y-89986900D01*
X150064150Y-88126900D01*
X150814150Y-88126900D01*
X150814150Y-89986900D01*
G37*
D10*
X123709750Y-136285000D02*
G75*
G03*
X123709750Y-136285000I-317500J0D01*
G01*
D11*
G36*
X148480950Y-95998800D02*
G01*
X146080950Y-95998800D01*
X146080950Y-95748800D01*
X148480950Y-95748800D01*
X148480950Y-95998800D01*
G37*
G36*
X159662150Y-65047600D02*
G01*
X157362150Y-65047600D01*
X157362150Y-64487600D01*
X159662150Y-64487600D01*
X159662150Y-65047600D01*
G37*
G36*
X146116050Y-125800100D02*
G01*
X145556050Y-125800100D01*
X145556050Y-123550100D01*
X146116050Y-123550100D01*
X146116050Y-125800100D01*
G37*
G36*
X127530950Y-96998800D02*
G01*
X125130950Y-96998800D01*
X125130950Y-96748800D01*
X127530950Y-96748800D01*
X127530950Y-96998800D01*
G37*
D10*
X142800050Y-142039700D02*
G75*
G03*
X142800050Y-142039700I-317500J0D01*
G01*
X147900050Y-142039700D02*
G75*
G03*
X147900050Y-142039700I-317500J0D01*
G01*
D11*
G36*
X149132150Y-60067600D02*
G01*
X148572150Y-60067600D01*
X148572150Y-57767600D01*
X149132150Y-57767600D01*
X149132150Y-60067600D01*
G37*
D15*
X120298450Y-74888500D02*
G75*
G03*
X120298450Y-74888500I-347500J0D01*
G01*
D11*
G36*
X138114150Y-89986900D02*
G01*
X137364150Y-89986900D01*
X137364150Y-88126900D01*
X138114150Y-88126900D01*
X138114150Y-89986900D01*
G37*
D15*
X117474750Y-78994100D02*
G75*
G03*
X117474750Y-78994100I-347500J0D01*
G01*
D11*
G36*
X143576050Y-114570100D02*
G01*
X143016050Y-114570100D01*
X143016050Y-112320100D01*
X143576050Y-112320100D01*
X143576050Y-114570100D01*
G37*
D13*
X124244750Y-70662200D02*
G75*
G03*
X124244750Y-70662200I-375000J0D01*
G01*
D10*
X146659750Y-140134700D02*
G75*
G03*
X146659750Y-140134700I-317500J0D01*
G01*
D11*
G36*
X127026350Y-125800100D02*
G01*
X126466350Y-125800100D01*
X126466350Y-123550100D01*
X127026350Y-123550100D01*
X127026350Y-125800100D01*
G37*
G36*
X125756350Y-125800100D02*
G01*
X125196350Y-125800100D01*
X125196350Y-123550100D01*
X125756350Y-123550100D01*
X125756350Y-125800100D01*
G37*
G36*
X121946350Y-125800100D02*
G01*
X121386350Y-125800100D01*
X121386350Y-123550100D01*
X121946350Y-123550100D01*
X121946350Y-125800100D01*
G37*
D10*
X135150050Y-138190000D02*
G75*
G03*
X135150050Y-138190000I-317500J0D01*
G01*
D11*
G36*
X129741350Y-118070100D02*
G01*
X127491350Y-118070100D01*
X127491350Y-117510100D01*
X129741350Y-117510100D01*
X129741350Y-118070100D01*
G37*
G36*
X148480950Y-94998800D02*
G01*
X146080950Y-94998800D01*
X146080950Y-94748800D01*
X148480950Y-94748800D01*
X148480950Y-94998800D01*
G37*
G36*
X156752150Y-71767600D02*
G01*
X156192150Y-71767600D01*
X156192150Y-69467600D01*
X156752150Y-69467600D01*
X156752150Y-71767600D01*
G37*
G36*
X127530950Y-93998800D02*
G01*
X125130950Y-93998800D01*
X125130950Y-93748800D01*
X127530950Y-93748800D01*
X127530950Y-93998800D01*
G37*
D13*
X124244750Y-62922200D02*
G75*
G03*
X124244750Y-62922200I-375000J0D01*
G01*
D11*
G36*
X127530950Y-97998800D02*
G01*
X125130950Y-97998800D01*
X125130950Y-97748800D01*
X127530950Y-97748800D01*
X127530950Y-97998800D01*
G37*
G36*
X149926050Y-125800100D02*
G01*
X149366050Y-125800100D01*
X149366050Y-123550100D01*
X149926050Y-123550100D01*
X149926050Y-125800100D01*
G37*
G36*
X121946350Y-114570100D02*
G01*
X121386350Y-114570100D01*
X121386350Y-112320100D01*
X121946350Y-112320100D01*
X121946350Y-114570100D01*
G37*
G36*
X118136350Y-125800100D02*
G01*
X117576350Y-125800100D01*
X117576350Y-123550100D01*
X118136350Y-123550100D01*
X118136350Y-125800100D01*
G37*
D14*
X115613450Y-111480400D02*
G75*
G03*
X115613450Y-111480400I-337500J0D01*
G01*
D10*
X118609750Y-136285000D02*
G75*
G03*
X118609750Y-136285000I-317500J0D01*
G01*
D13*
X144207550Y-73281900D02*
G75*
G03*
X144207550Y-73281900I-375000J0D01*
G01*
D11*
G36*
X150814150Y-89986900D02*
G01*
X150064150Y-89986900D01*
X150064150Y-88126900D01*
X150814150Y-88126900D01*
X150814150Y-89986900D01*
G37*
G36*
X125756350Y-114570100D02*
G01*
X125196350Y-114570100D01*
X125196350Y-112320100D01*
X125756350Y-112320100D01*
X125756350Y-114570100D01*
G37*
G36*
X155894150Y-89986900D02*
G01*
X155144150Y-89986900D01*
X155144150Y-88126900D01*
X155894150Y-88126900D01*
X155894150Y-89986900D01*
G37*
D10*
X119850050Y-138190000D02*
G75*
G03*
X119850050Y-138190000I-317500J0D01*
G01*
D13*
X144207550Y-75861900D02*
G75*
G03*
X144207550Y-75861900I-375000J0D01*
G01*
D15*
X117474750Y-87364100D02*
G75*
G03*
X117474750Y-87364100I-347500J0D01*
G01*
D11*
G36*
X147386050Y-114570100D02*
G01*
X146826050Y-114570100D01*
X146826050Y-112320100D01*
X147386050Y-112320100D01*
X147386050Y-114570100D01*
G37*
G36*
X141281050Y-115530100D02*
G01*
X139031050Y-115530100D01*
X139031050Y-114970100D01*
X141281050Y-114970100D01*
X141281050Y-115530100D01*
G37*
G36*
X148480950Y-98498800D02*
G01*
X146080950Y-98498800D01*
X146080950Y-98248800D01*
X148480950Y-98248800D01*
X148480950Y-98498800D01*
G37*
G36*
X148656050Y-114570100D02*
G01*
X148096050Y-114570100D01*
X148096050Y-112320100D01*
X148656050Y-112320100D01*
X148656050Y-114570100D01*
G37*
G36*
X127530950Y-98498800D02*
G01*
X125130950Y-98498800D01*
X125130950Y-98248800D01*
X127530950Y-98248800D01*
X127530950Y-98498800D01*
G37*
D13*
X169482550Y-50306600D02*
G75*
G03*
X169482550Y-50306600I-375000J0D01*
G01*
D14*
X143663450Y-126680700D02*
G75*
G03*
X143663450Y-126680700I-337500J0D01*
G01*
D11*
G36*
X127530950Y-98498800D02*
G01*
X125130950Y-98498800D01*
X125130950Y-98248800D01*
X127530950Y-98248800D01*
X127530950Y-98498800D01*
G37*
G36*
X148480950Y-98998800D02*
G01*
X146080950Y-98998800D01*
X146080950Y-98748800D01*
X148480950Y-98748800D01*
X148480950Y-98998800D01*
G37*
G36*
X148480950Y-97998800D02*
G01*
X146080950Y-97998800D01*
X146080950Y-97748800D01*
X148480950Y-97748800D01*
X148480950Y-97998800D01*
G37*
D13*
X161862550Y-63056600D02*
G75*
G03*
X161862550Y-63056600I-375000J0D01*
G01*
D11*
G36*
X151196050Y-125800100D02*
G01*
X150636050Y-125800100D01*
X150636050Y-123550100D01*
X151196050Y-123550100D01*
X151196050Y-125800100D01*
G37*
G36*
X155482150Y-71767600D02*
G01*
X154922150Y-71767600D01*
X154922150Y-69467600D01*
X155482150Y-69467600D01*
X155482150Y-71767600D01*
G37*
D15*
X120298450Y-86048500D02*
G75*
G03*
X120298450Y-86048500I-347500J0D01*
G01*
D14*
X146213450Y-111480400D02*
G75*
G03*
X146213450Y-111480400I-337500J0D01*
G01*
D11*
G36*
X141281050Y-118070100D02*
G01*
X139031050Y-118070100D01*
X139031050Y-117510100D01*
X141281050Y-117510100D01*
X141281050Y-118070100D01*
G37*
D14*
X146213450Y-126680700D02*
G75*
G03*
X146213450Y-126680700I-337500J0D01*
G01*
X120713450Y-126680700D02*
G75*
G03*
X120713450Y-126680700I-337500J0D01*
G01*
D10*
X144109750Y-136285000D02*
G75*
G03*
X144109750Y-136285000I-317500J0D01*
G01*
D11*
G36*
X118136350Y-114570100D02*
G01*
X117576350Y-114570100D01*
X117576350Y-112320100D01*
X118136350Y-112320100D01*
X118136350Y-114570100D01*
G37*
G36*
X150402150Y-71767600D02*
G01*
X149842150Y-71767600D01*
X149842150Y-69467600D01*
X150402150Y-69467600D01*
X150402150Y-71767600D01*
G37*
G36*
X127530950Y-92998800D02*
G01*
X125130950Y-92998800D01*
X125130950Y-92748800D01*
X127530950Y-92748800D01*
X127530950Y-92998800D01*
G37*
D14*
X126170350Y-43641900D02*
G75*
G03*
X126170350Y-43641900I-337500J0D01*
G01*
D10*
X151759750Y-136285000D02*
G75*
G03*
X151759750Y-136285000I-317500J0D01*
G01*
X145350050Y-142039700D02*
G75*
G03*
X145350050Y-142039700I-317500J0D01*
G01*
D13*
X169482550Y-63056600D02*
G75*
G03*
X169482550Y-63056600I-375000J0D01*
G01*
D11*
G36*
X127530950Y-99998800D02*
G01*
X125130950Y-99998800D01*
X125130950Y-99748800D01*
X127530950Y-99748800D01*
X127530950Y-99998800D01*
G37*
D15*
X117474750Y-59464100D02*
G75*
G03*
X117474750Y-59464100I-347500J0D01*
G01*
D10*
X153000050Y-138190000D02*
G75*
G03*
X153000050Y-138190000I-317500J0D01*
G01*
D11*
G36*
X143576050Y-125800100D02*
G01*
X143016050Y-125800100D01*
X143016050Y-123550100D01*
X143576050Y-123550100D01*
X143576050Y-125800100D01*
G37*
G36*
X152466050Y-125800100D02*
G01*
X151906050Y-125800100D01*
X151906050Y-123550100D01*
X152466050Y-123550100D01*
X152466050Y-125800100D01*
G37*
G36*
X148480950Y-96998800D02*
G01*
X146080950Y-96998800D01*
X146080950Y-96748800D01*
X148480950Y-96748800D01*
X148480950Y-96998800D01*
G37*
D10*
X136459750Y-140134700D02*
G75*
G03*
X136459750Y-140134700I-317500J0D01*
G01*
D13*
X124244750Y-68082200D02*
G75*
G03*
X124244750Y-68082200I-375000J0D01*
G01*
D11*
G36*
X127530950Y-92498800D02*
G01*
X125130950Y-92498800D01*
X125130950Y-92248800D01*
X127530950Y-92248800D01*
X127530950Y-92498800D01*
G37*
G36*
X141281050Y-118070100D02*
G01*
X139031050Y-118070100D01*
X139031050Y-117510100D01*
X141281050Y-117510100D01*
X141281050Y-118070100D01*
G37*
G36*
X143194150Y-103956900D02*
G01*
X142444150Y-103956900D01*
X142444150Y-102096900D01*
X143194150Y-102096900D01*
X143194150Y-103956900D01*
G37*
G36*
X127530950Y-95498800D02*
G01*
X125130950Y-95498800D01*
X125130950Y-95248800D01*
X127530950Y-95248800D01*
X127530950Y-95498800D01*
G37*
D10*
X133909750Y-136285000D02*
G75*
G03*
X133909750Y-136285000I-317500J0D01*
G01*
D14*
X125813450Y-111480400D02*
G75*
G03*
X125813450Y-111480400I-337500J0D01*
G01*
D16*
X119599450Y-51261900D02*
G75*
G03*
X119599450Y-51261900I-950000J0D01*
G01*
D10*
X155550050Y-142039700D02*
G75*
G03*
X155550050Y-142039700I-317500J0D01*
G01*
D11*
G36*
X141281050Y-123150100D02*
G01*
X139031050Y-123150100D01*
X139031050Y-122590100D01*
X141281050Y-122590100D01*
X141281050Y-123150100D01*
G37*
G36*
X129741350Y-121880100D02*
G01*
X127491350Y-121880100D01*
X127491350Y-121320100D01*
X129741350Y-121320100D01*
X129741350Y-121880100D01*
G37*
G36*
X127530950Y-94498800D02*
G01*
X125130950Y-94498800D01*
X125130950Y-94248800D01*
X127530950Y-94248800D01*
X127530950Y-94498800D01*
G37*
G36*
X127530950Y-93498800D02*
G01*
X125130950Y-93498800D01*
X125130950Y-93248800D01*
X127530950Y-93248800D01*
X127530950Y-93498800D01*
G37*
G36*
X154212150Y-71767600D02*
G01*
X153652150Y-71767600D01*
X153652150Y-69467600D01*
X154212150Y-69467600D01*
X154212150Y-71767600D01*
G37*
G36*
X145734150Y-89986900D02*
G01*
X144984150Y-89986900D01*
X144984150Y-88126900D01*
X145734150Y-88126900D01*
X145734150Y-89986900D01*
G37*
G36*
X154212150Y-60067600D02*
G01*
X153652150Y-60067600D01*
X153652150Y-57767600D01*
X154212150Y-57767600D01*
X154212150Y-60067600D01*
G37*
G36*
X148480950Y-99998800D02*
G01*
X146080950Y-99998800D01*
X146080950Y-99748800D01*
X148480950Y-99748800D01*
X148480950Y-99998800D01*
G37*
G36*
X151672150Y-60067600D02*
G01*
X151112150Y-60067600D01*
X151112150Y-57767600D01*
X151672150Y-57767600D01*
X151672150Y-60067600D01*
G37*
D10*
X130050050Y-142039700D02*
G75*
G03*
X130050050Y-142039700I-317500J0D01*
G01*
D11*
G36*
X139384150Y-103956900D02*
G01*
X138634150Y-103956900D01*
X138634150Y-102096900D01*
X139384150Y-102096900D01*
X139384150Y-103956900D01*
G37*
G36*
X155482150Y-60067600D02*
G01*
X154922150Y-60067600D01*
X154922150Y-57767600D01*
X155482150Y-57767600D01*
X155482150Y-60067600D01*
G37*
D13*
X144207550Y-60381900D02*
G75*
G03*
X144207550Y-60381900I-375000J0D01*
G01*
D11*
G36*
X127530950Y-99498800D02*
G01*
X125130950Y-99498800D01*
X125130950Y-99248800D01*
X127530950Y-99248800D01*
X127530950Y-99498800D01*
G37*
G36*
X116866350Y-114570100D02*
G01*
X116306350Y-114570100D01*
X116306350Y-112320100D01*
X116866350Y-112320100D01*
X116866350Y-114570100D01*
G37*
D10*
X123709750Y-140134700D02*
G75*
G03*
X123709750Y-140134700I-317500J0D01*
G01*
D11*
G36*
X154624150Y-89986900D02*
G01*
X153874150Y-89986900D01*
X153874150Y-88126900D01*
X154624150Y-88126900D01*
X154624150Y-89986900D01*
G37*
D13*
X144207550Y-57801900D02*
G75*
G03*
X144207550Y-57801900I-375000J0D01*
G01*
X124244750Y-65502200D02*
G75*
G03*
X124244750Y-65502200I-375000J0D01*
G01*
D11*
G36*
X127530950Y-93498800D02*
G01*
X125130950Y-93498800D01*
X125130950Y-93248800D01*
X127530950Y-93248800D01*
X127530950Y-93498800D01*
G37*
D15*
X120298450Y-72098500D02*
G75*
G03*
X120298450Y-72098500I-347500J0D01*
G01*
D11*
G36*
X145734150Y-103956900D02*
G01*
X144984150Y-103956900D01*
X144984150Y-102096900D01*
X145734150Y-102096900D01*
X145734150Y-103956900D01*
G37*
D13*
X136587550Y-68121900D02*
G75*
G03*
X136587550Y-68121900I-375000J0D01*
G01*
D10*
X141559750Y-136285000D02*
G75*
G03*
X141559750Y-136285000I-317500J0D01*
G01*
D11*
G36*
X147962150Y-65047600D02*
G01*
X145662150Y-65047600D01*
X145662150Y-64487600D01*
X147962150Y-64487600D01*
X147962150Y-65047600D01*
G37*
D15*
X117474750Y-81784100D02*
G75*
G03*
X117474750Y-81784100I-347500J0D01*
G01*
D11*
G36*
X144464150Y-103956900D02*
G01*
X143714150Y-103956900D01*
X143714150Y-102096900D01*
X144464150Y-102096900D01*
X144464150Y-103956900D01*
G37*
D14*
X164071950Y-106348200D02*
G75*
G03*
X164071950Y-106348200I-337500J0D01*
G01*
D10*
X121159750Y-140134700D02*
G75*
G03*
X121159750Y-140134700I-317500J0D01*
G01*
D11*
G36*
X115841350Y-118070100D02*
G01*
X113591350Y-118070100D01*
X113591350Y-117510100D01*
X115841350Y-117510100D01*
X115841350Y-118070100D01*
G37*
G36*
X148480950Y-93498800D02*
G01*
X146080950Y-93498800D01*
X146080950Y-93248800D01*
X148480950Y-93248800D01*
X148480950Y-93498800D01*
G37*
G36*
X140654150Y-103956900D02*
G01*
X139904150Y-103956900D01*
X139904150Y-102096900D01*
X140654150Y-102096900D01*
X140654150Y-103956900D01*
G37*
D14*
X138235350Y-50309400D02*
G75*
G03*
X138235350Y-50309400I-337500J0D01*
G01*
D11*
G36*
X152942150Y-60067600D02*
G01*
X152382150Y-60067600D01*
X152382150Y-57767600D01*
X152942150Y-57767600D01*
X152942150Y-60067600D01*
G37*
D15*
X120298450Y-91628500D02*
G75*
G03*
X120298450Y-91628500I-347500J0D01*
G01*
D11*
G36*
X157164150Y-103956900D02*
G01*
X156414150Y-103956900D01*
X156414150Y-102096900D01*
X157164150Y-102096900D01*
X157164150Y-103956900D01*
G37*
D14*
X118163450Y-126680700D02*
G75*
G03*
X118163450Y-126680700I-337500J0D01*
G01*
D11*
G36*
X115841350Y-115530100D02*
G01*
X113591350Y-115530100D01*
X113591350Y-114970100D01*
X115841350Y-114970100D01*
X115841350Y-115530100D01*
G37*
G36*
X148480950Y-92998800D02*
G01*
X146080950Y-92998800D01*
X146080950Y-92748800D01*
X148480950Y-92748800D01*
X148480950Y-92998800D01*
G37*
G36*
X149132150Y-60067600D02*
G01*
X148572150Y-60067600D01*
X148572150Y-57767600D01*
X149132150Y-57767600D01*
X149132150Y-60067600D01*
G37*
D14*
X141569150Y-82099100D02*
G75*
G03*
X141569150Y-82099100I-337500J0D01*
G01*
D11*
G36*
X155894150Y-89986900D02*
G01*
X155144150Y-89986900D01*
X155144150Y-88126900D01*
X155894150Y-88126900D01*
X155894150Y-89986900D01*
G37*
G36*
X154212150Y-60067600D02*
G01*
X153652150Y-60067600D01*
X153652150Y-57767600D01*
X154212150Y-57767600D01*
X154212150Y-60067600D01*
G37*
G36*
X141924150Y-103956900D02*
G01*
X141174150Y-103956900D01*
X141174150Y-102096900D01*
X141924150Y-102096900D01*
X141924150Y-103956900D01*
G37*
G36*
X151196050Y-114570100D02*
G01*
X150636050Y-114570100D01*
X150636050Y-112320100D01*
X151196050Y-112320100D01*
X151196050Y-114570100D01*
G37*
G36*
X141281050Y-116800100D02*
G01*
X139031050Y-116800100D01*
X139031050Y-116240100D01*
X141281050Y-116240100D01*
X141281050Y-116800100D01*
G37*
G36*
X143576050Y-125800100D02*
G01*
X143016050Y-125800100D01*
X143016050Y-123550100D01*
X143576050Y-123550100D01*
X143576050Y-125800100D01*
G37*
G36*
X127530950Y-94998800D02*
G01*
X125130950Y-94998800D01*
X125130950Y-94748800D01*
X127530950Y-94748800D01*
X127530950Y-94998800D01*
G37*
G36*
X138114150Y-103956900D02*
G01*
X137364150Y-103956900D01*
X137364150Y-102096900D01*
X138114150Y-102096900D01*
X138114150Y-103956900D01*
G37*
D10*
X150450050Y-138190000D02*
G75*
G03*
X150450050Y-138190000I-317500J0D01*
G01*
D11*
G36*
X139384150Y-89986900D02*
G01*
X138634150Y-89986900D01*
X138634150Y-88126900D01*
X139384150Y-88126900D01*
X139384150Y-89986900D01*
G37*
G36*
X159662150Y-62507600D02*
G01*
X157362150Y-62507600D01*
X157362150Y-61947600D01*
X159662150Y-61947600D01*
X159662150Y-62507600D01*
G37*
G36*
X148656050Y-114570100D02*
G01*
X148096050Y-114570100D01*
X148096050Y-112320100D01*
X148656050Y-112320100D01*
X148656050Y-114570100D01*
G37*
G36*
X129741350Y-121880100D02*
G01*
X127491350Y-121880100D01*
X127491350Y-121320100D01*
X129741350Y-121320100D01*
X129741350Y-121880100D01*
G37*
G36*
X144464150Y-89986900D02*
G01*
X143714150Y-89986900D01*
X143714150Y-88126900D01*
X144464150Y-88126900D01*
X144464150Y-89986900D01*
G37*
D17*
X144020950Y-43681600D02*
G75*
G03*
X144020950Y-43681600I-487500J0D01*
G01*
D14*
X166492850Y-96307200D02*
G75*
G03*
X166492850Y-96307200I-337500J0D01*
G01*
D10*
X133909750Y-140134700D02*
G75*
G03*
X133909750Y-140134700I-317500J0D01*
G01*
D11*
G36*
X140654150Y-89986900D02*
G01*
X139904150Y-89986900D01*
X139904150Y-88126900D01*
X140654150Y-88126900D01*
X140654150Y-89986900D01*
G37*
D14*
X123263450Y-126680700D02*
G75*
G03*
X123263450Y-126680700I-337500J0D01*
G01*
D10*
X128809750Y-140134700D02*
G75*
G03*
X128809750Y-140134700I-317500J0D01*
G01*
D11*
G36*
X142306050Y-125800100D02*
G01*
X141746050Y-125800100D01*
X141746050Y-123550100D01*
X142306050Y-123550100D01*
X142306050Y-125800100D01*
G37*
D17*
X140965050Y-43641900D02*
G75*
G03*
X140965050Y-43641900I-487500J0D01*
G01*
D13*
X136587550Y-65541900D02*
G75*
G03*
X136587550Y-65541900I-375000J0D01*
G01*
D11*
G36*
X148480950Y-92998800D02*
G01*
X146080950Y-92998800D01*
X146080950Y-92748800D01*
X148480950Y-92748800D01*
X148480950Y-92998800D01*
G37*
G36*
X149544150Y-103956900D02*
G01*
X148794150Y-103956900D01*
X148794150Y-102096900D01*
X149544150Y-102096900D01*
X149544150Y-103956900D01*
G37*
G36*
X127530950Y-99998800D02*
G01*
X125130950Y-99998800D01*
X125130950Y-99748800D01*
X127530950Y-99748800D01*
X127530950Y-99998800D01*
G37*
G36*
X156752150Y-60067600D02*
G01*
X156192150Y-60067600D01*
X156192150Y-57767600D01*
X156752150Y-57767600D01*
X156752150Y-60067600D01*
G37*
D10*
X141559750Y-140134700D02*
G75*
G03*
X141559750Y-140134700I-317500J0D01*
G01*
D15*
X120298450Y-80468500D02*
G75*
G03*
X120298450Y-80468500I-347500J0D01*
G01*
D13*
X169482550Y-75806600D02*
G75*
G03*
X169482550Y-75806600I-375000J0D01*
G01*
D14*
X128363450Y-111480400D02*
G75*
G03*
X128363450Y-111480400I-337500J0D01*
G01*
D11*
G36*
X154624150Y-89986900D02*
G01*
X153874150Y-89986900D01*
X153874150Y-88126900D01*
X154624150Y-88126900D01*
X154624150Y-89986900D01*
G37*
G36*
X152466050Y-125800100D02*
G01*
X151906050Y-125800100D01*
X151906050Y-123550100D01*
X152466050Y-123550100D01*
X152466050Y-125800100D01*
G37*
D13*
X124244750Y-55182200D02*
G75*
G03*
X124244750Y-55182200I-375000J0D01*
G01*
X161862550Y-68156600D02*
G75*
G03*
X161862550Y-68156600I-375000J0D01*
G01*
D11*
G36*
X119406350Y-114570100D02*
G01*
X118846350Y-114570100D01*
X118846350Y-112320100D01*
X119406350Y-112320100D01*
X119406350Y-114570100D01*
G37*
D14*
X118163450Y-111480400D02*
G75*
G03*
X118163450Y-111480400I-337500J0D01*
G01*
D13*
X161862550Y-78356600D02*
G75*
G03*
X161862550Y-78356600I-375000J0D01*
G01*
X144207550Y-62961900D02*
G75*
G03*
X144207550Y-62961900I-375000J0D01*
G01*
D11*
G36*
X155181050Y-120610100D02*
G01*
X152931050Y-120610100D01*
X152931050Y-120050100D01*
X155181050Y-120050100D01*
X155181050Y-120610100D01*
G37*
D13*
X161862550Y-70706600D02*
G75*
G03*
X161862550Y-70706600I-375000J0D01*
G01*
X124244750Y-60342200D02*
G75*
G03*
X124244750Y-60342200I-375000J0D01*
G01*
D11*
G36*
X148480950Y-92498800D02*
G01*
X146080950Y-92498800D01*
X146080950Y-92248800D01*
X148480950Y-92248800D01*
X148480950Y-92498800D01*
G37*
G36*
X123216350Y-114570100D02*
G01*
X122656350Y-114570100D01*
X122656350Y-112320100D01*
X123216350Y-112320100D01*
X123216350Y-114570100D01*
G37*
G36*
X147962150Y-62507600D02*
G01*
X145662150Y-62507600D01*
X145662150Y-61947600D01*
X147962150Y-61947600D01*
X147962150Y-62507600D01*
G37*
D10*
X137700050Y-142039700D02*
G75*
G03*
X137700050Y-142039700I-317500J0D01*
G01*
D11*
G36*
X144846050Y-114570100D02*
G01*
X144286050Y-114570100D01*
X144286050Y-112320100D01*
X144846050Y-112320100D01*
X144846050Y-114570100D01*
G37*
G36*
X156752150Y-71767600D02*
G01*
X156192150Y-71767600D01*
X156192150Y-69467600D01*
X156752150Y-69467600D01*
X156752150Y-71767600D01*
G37*
G36*
X141281050Y-115530100D02*
G01*
X139031050Y-115530100D01*
X139031050Y-114970100D01*
X141281050Y-114970100D01*
X141281050Y-115530100D01*
G37*
G36*
X148480950Y-97498800D02*
G01*
X146080950Y-97498800D01*
X146080950Y-97248800D01*
X148480950Y-97248800D01*
X148480950Y-97498800D01*
G37*
G36*
X144846050Y-125800100D02*
G01*
X144286050Y-125800100D01*
X144286050Y-123550100D01*
X144846050Y-123550100D01*
X144846050Y-125800100D01*
G37*
D13*
X169482550Y-60506600D02*
G75*
G03*
X169482550Y-60506600I-375000J0D01*
G01*
D11*
G36*
X141924150Y-103956900D02*
G01*
X141174150Y-103956900D01*
X141174150Y-102096900D01*
X141924150Y-102096900D01*
X141924150Y-103956900D01*
G37*
D14*
X153863450Y-111480400D02*
G75*
G03*
X153863450Y-111480400I-337500J0D01*
G01*
D11*
G36*
X127530950Y-92498800D02*
G01*
X125130950Y-92498800D01*
X125130950Y-92248800D01*
X127530950Y-92248800D01*
X127530950Y-92498800D01*
G37*
D13*
X131864750Y-78402200D02*
G75*
G03*
X131864750Y-78402200I-375000J0D01*
G01*
D10*
X135150050Y-142039700D02*
G75*
G03*
X135150050Y-142039700I-317500J0D01*
G01*
D11*
G36*
X147004150Y-89986900D02*
G01*
X146254150Y-89986900D01*
X146254150Y-88126900D01*
X147004150Y-88126900D01*
X147004150Y-89986900D01*
G37*
G36*
X115841350Y-121880100D02*
G01*
X113591350Y-121880100D01*
X113591350Y-121320100D01*
X115841350Y-121320100D01*
X115841350Y-121880100D01*
G37*
D10*
X117300050Y-138190000D02*
G75*
G03*
X117300050Y-138190000I-317500J0D01*
G01*
D13*
X161862550Y-60506600D02*
G75*
G03*
X161862550Y-60506600I-375000J0D01*
G01*
D11*
G36*
X159662150Y-61237600D02*
G01*
X157362150Y-61237600D01*
X157362150Y-60677600D01*
X159662150Y-60677600D01*
X159662150Y-61237600D01*
G37*
D13*
X136587550Y-60381900D02*
G75*
G03*
X136587550Y-60381900I-375000J0D01*
G01*
D14*
X153863450Y-126680700D02*
G75*
G03*
X153863450Y-126680700I-337500J0D01*
G01*
D11*
G36*
X154624150Y-103956900D02*
G01*
X153874150Y-103956900D01*
X153874150Y-102096900D01*
X154624150Y-102096900D01*
X154624150Y-103956900D01*
G37*
D14*
X138563450Y-126680700D02*
G75*
G03*
X138563450Y-126680700I-337500J0D01*
G01*
D13*
X136587550Y-57801900D02*
G75*
G03*
X136587550Y-57801900I-375000J0D01*
G01*
D11*
G36*
X147004150Y-103956900D02*
G01*
X146254150Y-103956900D01*
X146254150Y-102096900D01*
X147004150Y-102096900D01*
X147004150Y-103956900D01*
G37*
G36*
X151196050Y-114570100D02*
G01*
X150636050Y-114570100D01*
X150636050Y-112320100D01*
X151196050Y-112320100D01*
X151196050Y-114570100D01*
G37*
D10*
X159409750Y-140134700D02*
G75*
G03*
X159409750Y-140134700I-317500J0D01*
G01*
D14*
X169191650Y-106348200D02*
G75*
G03*
X169191650Y-106348200I-337500J0D01*
G01*
D11*
G36*
X125756350Y-114570100D02*
G01*
X125196350Y-114570100D01*
X125196350Y-112320100D01*
X125756350Y-112320100D01*
X125756350Y-114570100D01*
G37*
G36*
X121946350Y-125800100D02*
G01*
X121386350Y-125800100D01*
X121386350Y-123550100D01*
X121946350Y-123550100D01*
X121946350Y-125800100D01*
G37*
G36*
X115841350Y-121880100D02*
G01*
X113591350Y-121880100D01*
X113591350Y-121320100D01*
X115841350Y-121320100D01*
X115841350Y-121880100D01*
G37*
G36*
X148274150Y-89986900D02*
G01*
X147524150Y-89986900D01*
X147524150Y-88126900D01*
X148274150Y-88126900D01*
X148274150Y-89986900D01*
G37*
G36*
X159662150Y-66317600D02*
G01*
X157362150Y-66317600D01*
X157362150Y-65757600D01*
X159662150Y-65757600D01*
X159662150Y-66317600D01*
G37*
D13*
X124244750Y-73242200D02*
G75*
G03*
X124244750Y-73242200I-375000J0D01*
G01*
D10*
X142800050Y-138190000D02*
G75*
G03*
X142800050Y-138190000I-317500J0D01*
G01*
X156859750Y-136285000D02*
G75*
G03*
X156859750Y-136285000I-317500J0D01*
G01*
D11*
G36*
X146116050Y-114570100D02*
G01*
X145556050Y-114570100D01*
X145556050Y-112320100D01*
X146116050Y-112320100D01*
X146116050Y-114570100D01*
G37*
G36*
X155482150Y-60067600D02*
G01*
X154922150Y-60067600D01*
X154922150Y-57767600D01*
X155482150Y-57767600D01*
X155482150Y-60067600D01*
G37*
G36*
X124486350Y-125800100D02*
G01*
X123926350Y-125800100D01*
X123926350Y-123550100D01*
X124486350Y-123550100D01*
X124486350Y-125800100D01*
G37*
G36*
X115841350Y-118070100D02*
G01*
X113591350Y-118070100D01*
X113591350Y-117510100D01*
X115841350Y-117510100D01*
X115841350Y-118070100D01*
G37*
D14*
X144625050Y-50349100D02*
G75*
G03*
X144625050Y-50349100I-337500J0D01*
G01*
D11*
G36*
X147386050Y-114570100D02*
G01*
X146826050Y-114570100D01*
X146826050Y-112320100D01*
X147386050Y-112320100D01*
X147386050Y-114570100D01*
G37*
D15*
X117474750Y-70624100D02*
G75*
G03*
X117474750Y-70624100I-347500J0D01*
G01*
D13*
X131864750Y-68082200D02*
G75*
G03*
X131864750Y-68082200I-375000J0D01*
G01*
D11*
G36*
X146116050Y-114570100D02*
G01*
X145556050Y-114570100D01*
X145556050Y-112320100D01*
X146116050Y-112320100D01*
X146116050Y-114570100D01*
G37*
D13*
X136587550Y-75861900D02*
G75*
G03*
X136587550Y-75861900I-375000J0D01*
G01*
D11*
G36*
X148480950Y-98498800D02*
G01*
X146080950Y-98498800D01*
X146080950Y-98248800D01*
X148480950Y-98248800D01*
X148480950Y-98498800D01*
G37*
D10*
X159409750Y-136285000D02*
G75*
G03*
X159409750Y-136285000I-317500J0D01*
G01*
D11*
G36*
X157164150Y-89986900D02*
G01*
X156414150Y-89986900D01*
X156414150Y-88126900D01*
X157164150Y-88126900D01*
X157164150Y-89986900D01*
G37*
D13*
X124244750Y-75822200D02*
G75*
G03*
X124244750Y-75822200I-375000J0D01*
G01*
D11*
G36*
X129741350Y-115530100D02*
G01*
X127491350Y-115530100D01*
X127491350Y-114970100D01*
X129741350Y-114970100D01*
X129741350Y-115530100D01*
G37*
G36*
X157164150Y-89986900D02*
G01*
X156414150Y-89986900D01*
X156414150Y-88126900D01*
X157164150Y-88126900D01*
X157164150Y-89986900D01*
G37*
D14*
X115613450Y-126680700D02*
G75*
G03*
X115613450Y-126680700I-337500J0D01*
G01*
D13*
X131864750Y-62922200D02*
G75*
G03*
X131864750Y-62922200I-375000J0D01*
G01*
D11*
G36*
X127530950Y-93998800D02*
G01*
X125130950Y-93998800D01*
X125130950Y-93748800D01*
X127530950Y-93748800D01*
X127530950Y-93998800D01*
G37*
D15*
X117474750Y-90154100D02*
G75*
G03*
X117474750Y-90154100I-347500J0D01*
G01*
D10*
X155550050Y-138190000D02*
G75*
G03*
X155550050Y-138190000I-317500J0D01*
G01*
D13*
X161862550Y-73256600D02*
G75*
G03*
X161862550Y-73256600I-375000J0D01*
G01*
D11*
G36*
X143194150Y-103956900D02*
G01*
X142444150Y-103956900D01*
X142444150Y-102096900D01*
X143194150Y-102096900D01*
X143194150Y-103956900D01*
G37*
G36*
X124486350Y-114570100D02*
G01*
X123926350Y-114570100D01*
X123926350Y-112320100D01*
X124486350Y-112320100D01*
X124486350Y-114570100D01*
G37*
D13*
X169482550Y-65606600D02*
G75*
G03*
X169482550Y-65606600I-375000J0D01*
G01*
D14*
X166810350Y-82178500D02*
G75*
G03*
X166810350Y-82178500I-337500J0D01*
G01*
D17*
X137909150Y-43602200D02*
G75*
G03*
X137909150Y-43602200I-487500J0D01*
G01*
D16*
X119480350Y-98529700D02*
G75*
G03*
X119480350Y-98529700I-950000J0D01*
G01*
D11*
G36*
X129741350Y-120610100D02*
G01*
X127491350Y-120610100D01*
X127491350Y-120050100D01*
X129741350Y-120050100D01*
X129741350Y-120610100D01*
G37*
G36*
X127530950Y-99498800D02*
G01*
X125130950Y-99498800D01*
X125130950Y-99248800D01*
X127530950Y-99248800D01*
X127530950Y-99498800D01*
G37*
G36*
X147004150Y-103956900D02*
G01*
X146254150Y-103956900D01*
X146254150Y-102096900D01*
X147004150Y-102096900D01*
X147004150Y-103956900D01*
G37*
G36*
X127026350Y-125800100D02*
G01*
X126466350Y-125800100D01*
X126466350Y-123550100D01*
X127026350Y-123550100D01*
X127026350Y-125800100D01*
G37*
D14*
X161770050Y-82178500D02*
G75*
G03*
X161770050Y-82178500I-337500J0D01*
G01*
D15*
X117474750Y-76204100D02*
G75*
G03*
X117474750Y-76204100I-347500J0D01*
G01*
D11*
G36*
X155181050Y-116800100D02*
G01*
X152931050Y-116800100D01*
X152931050Y-116240100D01*
X155181050Y-116240100D01*
X155181050Y-116800100D01*
G37*
D14*
X143663450Y-111480400D02*
G75*
G03*
X143663450Y-111480400I-337500J0D01*
G01*
D11*
G36*
X155894150Y-103956900D02*
G01*
X155144150Y-103956900D01*
X155144150Y-102096900D01*
X155894150Y-102096900D01*
X155894150Y-103956900D01*
G37*
G36*
X155181050Y-119340100D02*
G01*
X152931050Y-119340100D01*
X152931050Y-118780100D01*
X155181050Y-118780100D01*
X155181050Y-119340100D01*
G37*
G36*
X153354150Y-103956900D02*
G01*
X152604150Y-103956900D01*
X152604150Y-102096900D01*
X153354150Y-102096900D01*
X153354150Y-103956900D01*
G37*
G36*
X123216350Y-114570100D02*
G01*
X122656350Y-114570100D01*
X122656350Y-112320100D01*
X123216350Y-112320100D01*
X123216350Y-114570100D01*
G37*
G36*
X140654150Y-89986900D02*
G01*
X139904150Y-89986900D01*
X139904150Y-88126900D01*
X140654150Y-88126900D01*
X140654150Y-89986900D01*
G37*
D15*
X120298450Y-83258500D02*
G75*
G03*
X120298450Y-83258500I-347500J0D01*
G01*
X117474750Y-65044100D02*
G75*
G03*
X117474750Y-65044100I-347500J0D01*
G01*
D11*
G36*
X150814150Y-103956900D02*
G01*
X150064150Y-103956900D01*
X150064150Y-102096900D01*
X150814150Y-102096900D01*
X150814150Y-103956900D01*
G37*
D10*
X153000050Y-142039700D02*
G75*
G03*
X153000050Y-142039700I-317500J0D01*
G01*
X122400050Y-142039700D02*
G75*
G03*
X122400050Y-142039700I-317500J0D01*
G01*
D11*
G36*
X119406350Y-114570100D02*
G01*
X118846350Y-114570100D01*
X118846350Y-112320100D01*
X119406350Y-112320100D01*
X119406350Y-114570100D01*
G37*
G36*
X148480950Y-99498800D02*
G01*
X146080950Y-99498800D01*
X146080950Y-99248800D01*
X148480950Y-99248800D01*
X148480950Y-99498800D01*
G37*
G36*
X115841350Y-120610100D02*
G01*
X113591350Y-120610100D01*
X113591350Y-120050100D01*
X115841350Y-120050100D01*
X115841350Y-120610100D01*
G37*
G36*
X127026350Y-114570100D02*
G01*
X126466350Y-114570100D01*
X126466350Y-112320100D01*
X127026350Y-112320100D01*
X127026350Y-114570100D01*
G37*
D13*
X136587550Y-55221900D02*
G75*
G03*
X136587550Y-55221900I-375000J0D01*
G01*
D11*
G36*
X155181050Y-120610100D02*
G01*
X152931050Y-120610100D01*
X152931050Y-120050100D01*
X155181050Y-120050100D01*
X155181050Y-120610100D01*
G37*
D14*
X125813450Y-126680700D02*
G75*
G03*
X125813450Y-126680700I-337500J0D01*
G01*
X166492850Y-91227200D02*
G75*
G03*
X166492850Y-91227200I-337500J0D01*
G01*
D11*
G36*
X148480950Y-92498800D02*
G01*
X146080950Y-92498800D01*
X146080950Y-92248800D01*
X148480950Y-92248800D01*
X148480950Y-92498800D01*
G37*
G36*
X150402150Y-60067600D02*
G01*
X149842150Y-60067600D01*
X149842150Y-57767600D01*
X150402150Y-57767600D01*
X150402150Y-60067600D01*
G37*
D10*
X139009750Y-136285000D02*
G75*
G03*
X139009750Y-136285000I-317500J0D01*
G01*
D11*
G36*
X147962150Y-61237600D02*
G01*
X145662150Y-61237600D01*
X145662150Y-60677600D01*
X147962150Y-60677600D01*
X147962150Y-61237600D01*
G37*
G36*
X148480950Y-99998800D02*
G01*
X146080950Y-99998800D01*
X146080950Y-99748800D01*
X148480950Y-99748800D01*
X148480950Y-99998800D01*
G37*
G36*
X115841350Y-123150100D02*
G01*
X113591350Y-123150100D01*
X113591350Y-122590100D01*
X115841350Y-122590100D01*
X115841350Y-123150100D01*
G37*
D14*
X148763450Y-126680700D02*
G75*
G03*
X148763450Y-126680700I-337500J0D01*
G01*
D15*
X117474750Y-73414100D02*
G75*
G03*
X117474750Y-73414100I-347500J0D01*
G01*
D11*
G36*
X154212150Y-71767600D02*
G01*
X153652150Y-71767600D01*
X153652150Y-69467600D01*
X154212150Y-69467600D01*
X154212150Y-71767600D01*
G37*
G36*
X146116050Y-125800100D02*
G01*
X145556050Y-125800100D01*
X145556050Y-123550100D01*
X146116050Y-123550100D01*
X146116050Y-125800100D01*
G37*
G36*
X154624150Y-103956900D02*
G01*
X153874150Y-103956900D01*
X153874150Y-102096900D01*
X154624150Y-102096900D01*
X154624150Y-103956900D01*
G37*
G36*
X148480950Y-96498800D02*
G01*
X146080950Y-96498800D01*
X146080950Y-96248800D01*
X148480950Y-96248800D01*
X148480950Y-96498800D01*
G37*
D10*
X132600050Y-142039700D02*
G75*
G03*
X132600050Y-142039700I-317500J0D01*
G01*
X154309750Y-136285000D02*
G75*
G03*
X154309750Y-136285000I-317500J0D01*
G01*
D15*
X120298450Y-58148500D02*
G75*
G03*
X120298450Y-58148500I-347500J0D01*
G01*
D14*
X148763450Y-111480400D02*
G75*
G03*
X148763450Y-111480400I-337500J0D01*
G01*
D13*
X144207550Y-65541900D02*
G75*
G03*
X144207550Y-65541900I-375000J0D01*
G01*
X124244750Y-78402200D02*
G75*
G03*
X124244750Y-78402200I-375000J0D01*
G01*
D11*
G36*
X129741350Y-119340100D02*
G01*
X127491350Y-119340100D01*
X127491350Y-118780100D01*
X129741350Y-118780100D01*
X129741350Y-119340100D01*
G37*
G36*
X150814150Y-103956900D02*
G01*
X150064150Y-103956900D01*
X150064150Y-102096900D01*
X150814150Y-102096900D01*
X150814150Y-103956900D01*
G37*
G36*
X151672150Y-71767600D02*
G01*
X151112150Y-71767600D01*
X151112150Y-69467600D01*
X151672150Y-69467600D01*
X151672150Y-71767600D01*
G37*
D13*
X136587550Y-78441900D02*
G75*
G03*
X136587550Y-78441900I-375000J0D01*
G01*
D15*
X120298450Y-60938500D02*
G75*
G03*
X120298450Y-60938500I-347500J0D01*
G01*
D11*
G36*
X147386050Y-125800100D02*
G01*
X146826050Y-125800100D01*
X146826050Y-123550100D01*
X147386050Y-123550100D01*
X147386050Y-125800100D01*
G37*
G36*
X155181050Y-123150100D02*
G01*
X152931050Y-123150100D01*
X152931050Y-122590100D01*
X155181050Y-122590100D01*
X155181050Y-123150100D01*
G37*
D14*
X133463450Y-111480400D02*
G75*
G03*
X133463450Y-111480400I-337500J0D01*
G01*
X126130650Y-46221600D02*
G75*
G03*
X126130650Y-46221600I-337500J0D01*
G01*
D10*
X139009750Y-140134700D02*
G75*
G03*
X139009750Y-140134700I-317500J0D01*
G01*
X147900050Y-138190000D02*
G75*
G03*
X147900050Y-138190000I-317500J0D01*
G01*
X126259750Y-136285000D02*
G75*
G03*
X126259750Y-136285000I-317500J0D01*
G01*
D11*
G36*
X147962150Y-65047600D02*
G01*
X145662150Y-65047600D01*
X145662150Y-64487600D01*
X147962150Y-64487600D01*
X147962150Y-65047600D01*
G37*
G36*
X148480950Y-96498800D02*
G01*
X146080950Y-96498800D01*
X146080950Y-96248800D01*
X148480950Y-96248800D01*
X148480950Y-96498800D01*
G37*
G36*
X149926050Y-114570100D02*
G01*
X149366050Y-114570100D01*
X149366050Y-112320100D01*
X149926050Y-112320100D01*
X149926050Y-114570100D01*
G37*
D10*
X158100050Y-138190000D02*
G75*
G03*
X158100050Y-138190000I-317500J0D01*
G01*
D11*
G36*
X148656050Y-125800100D02*
G01*
X148096050Y-125800100D01*
X148096050Y-123550100D01*
X148656050Y-123550100D01*
X148656050Y-125800100D01*
G37*
G36*
X150402150Y-71767600D02*
G01*
X149842150Y-71767600D01*
X149842150Y-69467600D01*
X150402150Y-69467600D01*
X150402150Y-71767600D01*
G37*
G36*
X155181050Y-115530100D02*
G01*
X152931050Y-115530100D01*
X152931050Y-114970100D01*
X155181050Y-114970100D01*
X155181050Y-115530100D01*
G37*
G36*
X119406350Y-125800100D02*
G01*
X118846350Y-125800100D01*
X118846350Y-123550100D01*
X119406350Y-123550100D01*
X119406350Y-125800100D01*
G37*
G36*
X148480950Y-93998800D02*
G01*
X146080950Y-93998800D01*
X146080950Y-93748800D01*
X148480950Y-93748800D01*
X148480950Y-93998800D01*
G37*
G36*
X125756350Y-125800100D02*
G01*
X125196350Y-125800100D01*
X125196350Y-123550100D01*
X125756350Y-123550100D01*
X125756350Y-125800100D01*
G37*
D10*
X132600050Y-138190000D02*
G75*
G03*
X132600050Y-138190000I-317500J0D01*
G01*
D11*
G36*
X141281050Y-121880100D02*
G01*
X139031050Y-121880100D01*
X139031050Y-121320100D01*
X141281050Y-121320100D01*
X141281050Y-121880100D01*
G37*
G36*
X127530950Y-95998800D02*
G01*
X125130950Y-95998800D01*
X125130950Y-95748800D01*
X127530950Y-95748800D01*
X127530950Y-95998800D01*
G37*
D14*
X129940650Y-43681600D02*
G75*
G03*
X129940650Y-43681600I-337500J0D01*
G01*
D11*
G36*
X127530950Y-98998800D02*
G01*
X125130950Y-98998800D01*
X125130950Y-98748800D01*
X127530950Y-98748800D01*
X127530950Y-98998800D01*
G37*
D17*
X134615050Y-43602300D02*
G75*
G03*
X134615050Y-43602300I-487500J0D01*
G01*
D13*
X161862550Y-50306600D02*
G75*
G03*
X161862550Y-50306600I-375000J0D01*
G01*
D11*
G36*
X155181050Y-123150100D02*
G01*
X152931050Y-123150100D01*
X152931050Y-122590100D01*
X155181050Y-122590100D01*
X155181050Y-123150100D01*
G37*
G36*
X147962150Y-68857600D02*
G01*
X145662150Y-68857600D01*
X145662150Y-68297600D01*
X147962150Y-68297600D01*
X147962150Y-68857600D01*
G37*
G36*
X148480950Y-94998800D02*
G01*
X146080950Y-94998800D01*
X146080950Y-94748800D01*
X148480950Y-94748800D01*
X148480950Y-94998800D01*
G37*
G36*
X123216350Y-125800100D02*
G01*
X122656350Y-125800100D01*
X122656350Y-123550100D01*
X123216350Y-123550100D01*
X123216350Y-125800100D01*
G37*
G36*
X120676350Y-114570100D02*
G01*
X120116350Y-114570100D01*
X120116350Y-112320100D01*
X120676350Y-112320100D01*
X120676350Y-114570100D01*
G37*
G36*
X145734150Y-103956900D02*
G01*
X144984150Y-103956900D01*
X144984150Y-102096900D01*
X145734150Y-102096900D01*
X145734150Y-103956900D01*
G37*
G36*
X118136350Y-125800100D02*
G01*
X117576350Y-125800100D01*
X117576350Y-123550100D01*
X118136350Y-123550100D01*
X118136350Y-125800100D01*
G37*
G36*
X148480950Y-94498800D02*
G01*
X146080950Y-94498800D01*
X146080950Y-94248800D01*
X148480950Y-94248800D01*
X148480950Y-94498800D01*
G37*
G36*
X148274150Y-103956900D02*
G01*
X147524150Y-103956900D01*
X147524150Y-102096900D01*
X148274150Y-102096900D01*
X148274150Y-103956900D01*
G37*
G36*
X148656050Y-125800100D02*
G01*
X148096050Y-125800100D01*
X148096050Y-123550100D01*
X148656050Y-123550100D01*
X148656050Y-125800100D01*
G37*
G36*
X153354150Y-89986900D02*
G01*
X152604150Y-89986900D01*
X152604150Y-88126900D01*
X153354150Y-88126900D01*
X153354150Y-89986900D01*
G37*
G36*
X141281050Y-120610100D02*
G01*
X139031050Y-120610100D01*
X139031050Y-120050100D01*
X141281050Y-120050100D01*
X141281050Y-120610100D01*
G37*
G36*
X159662150Y-61237600D02*
G01*
X157362150Y-61237600D01*
X157362150Y-60677600D01*
X159662150Y-60677600D01*
X159662150Y-61237600D01*
G37*
G36*
X127530950Y-94998800D02*
G01*
X125130950Y-94998800D01*
X125130950Y-94748800D01*
X127530950Y-94748800D01*
X127530950Y-94998800D01*
G37*
G36*
X152942150Y-71767600D02*
G01*
X152382150Y-71767600D01*
X152382150Y-69467600D01*
X152942150Y-69467600D01*
X152942150Y-71767600D01*
G37*
G36*
X144464150Y-103956900D02*
G01*
X143714150Y-103956900D01*
X143714150Y-102096900D01*
X144464150Y-102096900D01*
X144464150Y-103956900D01*
G37*
G36*
X148480950Y-99498800D02*
G01*
X146080950Y-99498800D01*
X146080950Y-99248800D01*
X148480950Y-99248800D01*
X148480950Y-99498800D01*
G37*
D13*
X144207550Y-78441900D02*
G75*
G03*
X144207550Y-78441900I-375000J0D01*
G01*
D14*
X130913450Y-126680700D02*
G75*
G03*
X130913450Y-126680700I-337500J0D01*
G01*
D11*
G36*
X155181050Y-119340100D02*
G01*
X152931050Y-119340100D01*
X152931050Y-118780100D01*
X155181050Y-118780100D01*
X155181050Y-119340100D01*
G37*
G36*
X148480950Y-96998800D02*
G01*
X146080950Y-96998800D01*
X146080950Y-96748800D01*
X148480950Y-96748800D01*
X148480950Y-96998800D01*
G37*
D13*
X161862550Y-75806600D02*
G75*
G03*
X161862550Y-75806600I-375000J0D01*
G01*
D15*
X120298450Y-69308500D02*
G75*
G03*
X120298450Y-69308500I-347500J0D01*
G01*
D11*
G36*
X148480950Y-95498800D02*
G01*
X146080950Y-95498800D01*
X146080950Y-95248800D01*
X148480950Y-95248800D01*
X148480950Y-95498800D01*
G37*
D13*
X131864750Y-57762200D02*
G75*
G03*
X131864750Y-57762200I-375000J0D01*
G01*
D11*
G36*
X147386050Y-125800100D02*
G01*
X146826050Y-125800100D01*
X146826050Y-123550100D01*
X147386050Y-123550100D01*
X147386050Y-125800100D01*
G37*
G36*
X129741350Y-120610100D02*
G01*
X127491350Y-120610100D01*
X127491350Y-120050100D01*
X129741350Y-120050100D01*
X129741350Y-120610100D01*
G37*
D15*
X117474750Y-62254100D02*
G75*
G03*
X117474750Y-62254100I-347500J0D01*
G01*
D10*
X136459750Y-136285000D02*
G75*
G03*
X136459750Y-136285000I-317500J0D01*
G01*
D13*
X131864750Y-60342200D02*
G75*
G03*
X131864750Y-60342200I-375000J0D01*
G01*
X144207550Y-70701900D02*
G75*
G03*
X144207550Y-70701900I-375000J0D01*
G01*
X136587550Y-70701900D02*
G75*
G03*
X136587550Y-70701900I-375000J0D01*
G01*
X136587550Y-62961900D02*
G75*
G03*
X136587550Y-62961900I-375000J0D01*
G01*
D11*
G36*
X148480950Y-98998800D02*
G01*
X146080950Y-98998800D01*
X146080950Y-98748800D01*
X148480950Y-98748800D01*
X148480950Y-98998800D01*
G37*
G36*
X141281050Y-119340100D02*
G01*
X139031050Y-119340100D01*
X139031050Y-118780100D01*
X141281050Y-118780100D01*
X141281050Y-119340100D01*
G37*
D14*
X138563450Y-111480400D02*
G75*
G03*
X138563450Y-111480400I-337500J0D01*
G01*
D10*
X124950050Y-138190000D02*
G75*
G03*
X124950050Y-138190000I-317500J0D01*
G01*
D11*
G36*
X155181050Y-118070100D02*
G01*
X152931050Y-118070100D01*
X152931050Y-117510100D01*
X155181050Y-117510100D01*
X155181050Y-118070100D01*
G37*
D13*
X169482550Y-55406600D02*
G75*
G03*
X169482550Y-55406600I-375000J0D01*
G01*
X144207550Y-68121900D02*
G75*
G03*
X144207550Y-68121900I-375000J0D01*
G01*
D11*
G36*
X118136350Y-114570100D02*
G01*
X117576350Y-114570100D01*
X117576350Y-112320100D01*
X118136350Y-112320100D01*
X118136350Y-114570100D01*
G37*
G36*
X143576050Y-114570100D02*
G01*
X143016050Y-114570100D01*
X143016050Y-112320100D01*
X143576050Y-112320100D01*
X143576050Y-114570100D01*
G37*
D10*
X156859750Y-140134700D02*
G75*
G03*
X156859750Y-140134700I-317500J0D01*
G01*
D11*
G36*
X155894150Y-103956900D02*
G01*
X155144150Y-103956900D01*
X155144150Y-102096900D01*
X155894150Y-102096900D01*
X155894150Y-103956900D01*
G37*
G36*
X142306050Y-125800100D02*
G01*
X141746050Y-125800100D01*
X141746050Y-123550100D01*
X142306050Y-123550100D01*
X142306050Y-125800100D01*
G37*
G36*
X159662150Y-63777600D02*
G01*
X157362150Y-63777600D01*
X157362150Y-63217600D01*
X159662150Y-63217600D01*
X159662150Y-63777600D01*
G37*
D13*
X169482550Y-68156600D02*
G75*
G03*
X169482550Y-68156600I-375000J0D01*
G01*
D14*
X136013450Y-111480400D02*
G75*
G03*
X136013450Y-111480400I-337500J0D01*
G01*
D10*
X119850050Y-142039700D02*
G75*
G03*
X119850050Y-142039700I-317500J0D01*
G01*
D11*
G36*
X157164150Y-103956900D02*
G01*
X156414150Y-103956900D01*
X156414150Y-102096900D01*
X157164150Y-102096900D01*
X157164150Y-103956900D01*
G37*
D14*
X141113450Y-111480400D02*
G75*
G03*
X141113450Y-111480400I-337500J0D01*
G01*
D11*
G36*
X141281050Y-119340100D02*
G01*
X139031050Y-119340100D01*
X139031050Y-118780100D01*
X141281050Y-118780100D01*
X141281050Y-119340100D01*
G37*
D10*
X126259750Y-140134700D02*
G75*
G03*
X126259750Y-140134700I-317500J0D01*
G01*
X137700050Y-138190000D02*
G75*
G03*
X137700050Y-138190000I-317500J0D01*
G01*
D11*
G36*
X127026350Y-114570100D02*
G01*
X126466350Y-114570100D01*
X126466350Y-112320100D01*
X127026350Y-112320100D01*
X127026350Y-114570100D01*
G37*
D15*
X120298450Y-63728500D02*
G75*
G03*
X120298450Y-63728500I-347500J0D01*
G01*
D11*
G36*
X147962150Y-63777600D02*
G01*
X145662150Y-63777600D01*
X145662150Y-63217600D01*
X147962150Y-63217600D01*
X147962150Y-63777600D01*
G37*
D12*
X113061650Y-139169700D02*
G75*
G03*
X113061650Y-139169700I-1040000J0D01*
G01*
D11*
G36*
X115841350Y-119340100D02*
G01*
X113591350Y-119340100D01*
X113591350Y-118780100D01*
X115841350Y-118780100D01*
X115841350Y-119340100D01*
G37*
G36*
X141281050Y-116800100D02*
G01*
X139031050Y-116800100D01*
X139031050Y-116240100D01*
X141281050Y-116240100D01*
X141281050Y-116800100D01*
G37*
G36*
X155181050Y-118070100D02*
G01*
X152931050Y-118070100D01*
X152931050Y-117510100D01*
X155181050Y-117510100D01*
X155181050Y-118070100D01*
G37*
G36*
X115841350Y-116800100D02*
G01*
X113591350Y-116800100D01*
X113591350Y-116240100D01*
X115841350Y-116240100D01*
X115841350Y-116800100D01*
G37*
D13*
X161862550Y-52856600D02*
G75*
G03*
X161862550Y-52856600I-375000J0D01*
G01*
X161862550Y-55406600D02*
G75*
G03*
X161862550Y-55406600I-375000J0D01*
G01*
D14*
X133463450Y-126680700D02*
G75*
G03*
X133463450Y-126680700I-337500J0D01*
G01*
D11*
G36*
X150402150Y-60067600D02*
G01*
X149842150Y-60067600D01*
X149842150Y-57767600D01*
X150402150Y-57767600D01*
X150402150Y-60067600D01*
G37*
G36*
X152942150Y-60067600D02*
G01*
X152382150Y-60067600D01*
X152382150Y-57767600D01*
X152942150Y-57767600D01*
X152942150Y-60067600D01*
G37*
D17*
X147315050Y-43681600D02*
G75*
G03*
X147315050Y-43681600I-487500J0D01*
G01*
D11*
G36*
X155181050Y-121880100D02*
G01*
X152931050Y-121880100D01*
X152931050Y-121320100D01*
X155181050Y-121320100D01*
X155181050Y-121880100D01*
G37*
G36*
X153354150Y-103956900D02*
G01*
X152604150Y-103956900D01*
X152604150Y-102096900D01*
X153354150Y-102096900D01*
X153354150Y-103956900D01*
G37*
G36*
X127530950Y-97498800D02*
G01*
X125130950Y-97498800D01*
X125130950Y-97248800D01*
X127530950Y-97248800D01*
X127530950Y-97498800D01*
G37*
G36*
X149544150Y-89986900D02*
G01*
X148794150Y-89986900D01*
X148794150Y-88126900D01*
X149544150Y-88126900D01*
X149544150Y-89986900D01*
G37*
G36*
X127530950Y-95998800D02*
G01*
X125130950Y-95998800D01*
X125130950Y-95748800D01*
X127530950Y-95748800D01*
X127530950Y-95998800D01*
G37*
G36*
X148480950Y-97498800D02*
G01*
X146080950Y-97498800D01*
X146080950Y-97248800D01*
X148480950Y-97248800D01*
X148480950Y-97498800D01*
G37*
G36*
X127530950Y-94498800D02*
G01*
X125130950Y-94498800D01*
X125130950Y-94248800D01*
X127530950Y-94248800D01*
X127530950Y-94498800D01*
G37*
D15*
X120298450Y-88838500D02*
G75*
G03*
X120298450Y-88838500I-347500J0D01*
G01*
D14*
X124265350Y-46142200D02*
G75*
G03*
X124265350Y-46142200I-337500J0D01*
G01*
X151313450Y-126680700D02*
G75*
G03*
X151313450Y-126680700I-337500J0D01*
G01*
D11*
G36*
X141281050Y-121880100D02*
G01*
X139031050Y-121880100D01*
X139031050Y-121320100D01*
X141281050Y-121320100D01*
X141281050Y-121880100D01*
G37*
G36*
X115841350Y-116800100D02*
G01*
X113591350Y-116800100D01*
X113591350Y-116240100D01*
X115841350Y-116240100D01*
X115841350Y-116800100D01*
G37*
D15*
X120298450Y-66518500D02*
G75*
G03*
X120298450Y-66518500I-347500J0D01*
G01*
D11*
G36*
X138114150Y-89986900D02*
G01*
X137364150Y-89986900D01*
X137364150Y-88126900D01*
X138114150Y-88126900D01*
X138114150Y-89986900D01*
G37*
G36*
X143194150Y-89986900D02*
G01*
X142444150Y-89986900D01*
X142444150Y-88126900D01*
X143194150Y-88126900D01*
X143194150Y-89986900D01*
G37*
G36*
X120676350Y-114570100D02*
G01*
X120116350Y-114570100D01*
X120116350Y-112320100D01*
X120676350Y-112320100D01*
X120676350Y-114570100D01*
G37*
G36*
X147004150Y-89986900D02*
G01*
X146254150Y-89986900D01*
X146254150Y-88126900D01*
X147004150Y-88126900D01*
X147004150Y-89986900D01*
G37*
G36*
X159662150Y-63777600D02*
G01*
X157362150Y-63777600D01*
X157362150Y-63217600D01*
X159662150Y-63217600D01*
X159662150Y-63777600D01*
G37*
D13*
X169482550Y-73256600D02*
G75*
G03*
X169482550Y-73256600I-375000J0D01*
G01*
D11*
G36*
X149132150Y-71767600D02*
G01*
X148572150Y-71767600D01*
X148572150Y-69467600D01*
X149132150Y-69467600D01*
X149132150Y-71767600D01*
G37*
D14*
X166254750Y-117381300D02*
G75*
G03*
X166254750Y-117381300I-337500J0D01*
G01*
X117875650Y-46102600D02*
G75*
G03*
X117875650Y-46102600I-337500J0D01*
G01*
D10*
X140250050Y-142039700D02*
G75*
G03*
X140250050Y-142039700I-317500J0D01*
G01*
D15*
X117474750Y-84574100D02*
G75*
G03*
X117474750Y-84574100I-347500J0D01*
G01*
D11*
G36*
X148274150Y-103956900D02*
G01*
X147524150Y-103956900D01*
X147524150Y-102096900D01*
X148274150Y-102096900D01*
X148274150Y-103956900D01*
G37*
D10*
X149209750Y-136285000D02*
G75*
G03*
X149209750Y-136285000I-317500J0D01*
G01*
D11*
G36*
X151672150Y-60067600D02*
G01*
X151112150Y-60067600D01*
X151112150Y-57767600D01*
X151672150Y-57767600D01*
X151672150Y-60067600D01*
G37*
D13*
X169482550Y-52856600D02*
G75*
G03*
X169482550Y-52856600I-375000J0D01*
G01*
D11*
G36*
X129741350Y-123150100D02*
G01*
X127491350Y-123150100D01*
X127491350Y-122590100D01*
X129741350Y-122590100D01*
X129741350Y-123150100D01*
G37*
G36*
X127530950Y-92998800D02*
G01*
X125130950Y-92998800D01*
X125130950Y-92748800D01*
X127530950Y-92748800D01*
X127530950Y-92998800D01*
G37*
G36*
X141924150Y-89986900D02*
G01*
X141174150Y-89986900D01*
X141174150Y-88126900D01*
X141924150Y-88126900D01*
X141924150Y-89986900D01*
G37*
D15*
X120298450Y-77678500D02*
G75*
G03*
X120298450Y-77678500I-347500J0D01*
G01*
D11*
G36*
X127530950Y-96498800D02*
G01*
X125130950Y-96498800D01*
X125130950Y-96248800D01*
X127530950Y-96248800D01*
X127530950Y-96498800D01*
G37*
D18*
X164994450Y-129922600D02*
G75*
G03*
X164994450Y-129922600I-942500J0D01*
G01*
D14*
X129265950Y-81464100D02*
G75*
G03*
X129265950Y-81464100I-337500J0D01*
G01*
D10*
X131359750Y-140134700D02*
G75*
G03*
X131359750Y-140134700I-317500J0D01*
G01*
D11*
G36*
X152084150Y-103956900D02*
G01*
X151334150Y-103956900D01*
X151334150Y-102096900D01*
X152084150Y-102096900D01*
X152084150Y-103956900D01*
G37*
D13*
X131864750Y-73242200D02*
G75*
G03*
X131864750Y-73242200I-375000J0D01*
G01*
D11*
G36*
X123216350Y-125800100D02*
G01*
X122656350Y-125800100D01*
X122656350Y-123550100D01*
X123216350Y-123550100D01*
X123216350Y-125800100D01*
G37*
G36*
X156752150Y-60067600D02*
G01*
X156192150Y-60067600D01*
X156192150Y-57767600D01*
X156752150Y-57767600D01*
X156752150Y-60067600D01*
G37*
G36*
X120676350Y-125800100D02*
G01*
X120116350Y-125800100D01*
X120116350Y-123550100D01*
X120676350Y-123550100D01*
X120676350Y-125800100D01*
G37*
G36*
X115841350Y-119340100D02*
G01*
X113591350Y-119340100D01*
X113591350Y-118780100D01*
X115841350Y-118780100D01*
X115841350Y-119340100D01*
G37*
G36*
X129741350Y-118070100D02*
G01*
X127491350Y-118070100D01*
X127491350Y-117510100D01*
X129741350Y-117510100D01*
X129741350Y-118070100D01*
G37*
M02*
