M48
; DRILL file {KiCad (6.0.2)} date Tue Jul 19 18:31:24 2022
; FORMAT={-:-/ absolute / metric / decimal}
; #@! TF.CreationDate,2022-07-19T18:31:24-05:00
; #@! TF.GenerationSoftware,Kicad,Pcbnew,(6.0.2)
; #@! TF.FileFunction,Plated,1,2,PTH
FMAT,2
METRIC
; #@! TA.AperFunction,Plated,PTH,ViaDrill
T1C0.550
; #@! TA.AperFunction,Plated,PTH,ViaDrill
T2C0.600
; #@! TA.AperFunction,Plated,PTH,ViaDrill
T3C0.900
; #@! TA.AperFunction,Plated,PTH,ViaDrill
T4C0.910
; #@! TA.AperFunction,Plated,PTH,ViaDrill
T5C0.950
; #@! TA.AperFunction,Plated,PTH,ViaDrill
T6C1.000
; #@! TA.AperFunction,Plated,PTH,ViaDrill
T7C1.350
; #@! TA.AperFunction,Plated,PTH,ViaDrill
T8C3.140
; #@! TA.AperFunction,Plated,PTH,ViaDrill
T9C3.160
%
G90
G05
T1
X110.553Y-128.334
X110.833Y-120.394
X111.383Y-129.204
X111.503Y-121.664
X112.223Y-122.854
X112.263Y-129.964
X112.853Y-124.724
X113.883Y-117.814
X116.423Y-116.504
X117.773Y-118.814
X119.523Y-106.704
X119.563Y-132.784
X120.313Y-131.704
X121.543Y-131.744
X122.663Y-117.504
X122.853Y-122.814
X122.973Y-131.744
X123.133Y-107.304
X123.333Y-129.284
X124.083Y-109.924
X124.403Y-107.304
X124.963Y-119.404
X125.243Y-120.954
X125.353Y-118.414
X126.313Y-119.084
X126.663Y-115.794
X127.223Y-107.344
X127.223Y-109.164
X127.813Y-131.784
X127.973Y-133.934
X128.533Y-83.844
X128.573Y-114.084
X128.853Y-105.994
X129.603Y-132.544
X129.683Y-114.084
X129.963Y-134.214
X130.083Y-105.914
X130.393Y-131.744
X130.473Y-124.054
X130.513Y-118.374
X130.553Y-104.764
X130.793Y-114.364
X131.583Y-122.544
X132.823Y-106.824
X133.293Y-123.654
X133.573Y-132.584
X133.773Y-104.764
X134.013Y-108.014
X134.243Y-120.754
X134.243Y-129.014
X135.003Y-124.054
X135.513Y-117.144
X135.513Y-130.634
X135.593Y-105.634
X136.783Y-133.254
X137.343Y-106.274
X137.973Y-131.154
X138.093Y-107.894
X138.573Y-56.504
X139.323Y-133.254
X139.363Y-106.624
X140.593Y-108.134
X140.633Y-131.114
X141.073Y-107.024
X141.943Y-133.254
X142.383Y-107.064
X142.783Y-115.834
X143.613Y-101.624
X143.613Y-133.214
X143.653Y-108.174
X143.653Y-122.854
X145.593Y-130.994
X145.753Y-116.544
X146.393Y-122.464
X146.393Y-129.094
X146.983Y-107.504
X147.263Y-117.064
X147.823Y-134.134
X148.293Y-114.884
X149.093Y-87.534
X149.253Y-116.354
X149.643Y-134.134
X150.323Y-86.704
X150.833Y-118.134
X150.913Y-134.134
X152.103Y-121.984
X152.183Y-129.324
X152.663Y-124.724
X153.653Y-130.434
X155.283Y-122.974
X155.283Y-128.454
X155.363Y-101.904
X155.993Y-121.434
X156.553Y-94.764
X156.713Y-107.184
X156.983Y-117.224
X157.663Y-135.044
X158.813Y-132.504
X160.123Y-123.174
X160.953Y-96.344
X162.143Y-117.854
T2
X119.163Y-102.774
X120.913Y-103.094
X121.703Y-95.634
X122.143Y-97.264
X122.343Y-102.454
X123.853Y-101.624
X126.113Y-100.434
X128.653Y-96.864
X130.473Y-88.294
X130.713Y-93.294
X132.863Y-95.834
X133.773Y-81.704
X138.493Y-90.914
X138.973Y-76.744
X139.093Y-64.634
X139.723Y-78.214
X140.003Y-95.834
X140.083Y-90.634
X141.073Y-74.994
X141.393Y-91.464
X141.513Y-95.914
X141.823Y-73.524
X142.223Y-66.664
X142.623Y-90.594
X143.173Y-92.814
X143.653Y-97.104
X144.683Y-94.954
X145.163Y-87.574
X145.953Y-91.064
X145.993Y-59.044
X147.263Y-49.474
X147.263Y-71.624
X147.463Y-90.874
X149.173Y-66.664
X149.213Y-63.164
X150.283Y-90.594
X151.073Y-75.674
X151.553Y-100.634
X151.593Y-91.824
X152.543Y-63.644
X152.663Y-67.334
X152.743Y-80.154
X152.783Y-73.484
X152.863Y-90.554
X153.493Y-105.794
X154.093Y-91.824
X154.683Y-81.624
X154.723Y-73.524
X154.963Y-105.794
X155.003Y-56.144
X155.363Y-90.554
X156.713Y-73.524
X156.713Y-83.134
X158.653Y-119.084
X158.733Y-70.434
X159.523Y-116.584
X162.183Y-99.404
X165.763Y-56.344
X172.423Y-50.154
T3
X116.983Y-138.194
X116.983Y-142.044
X118.293Y-136.284
X118.293Y-140.134
X119.533Y-138.194
X119.533Y-142.044
X120.843Y-136.284
X120.843Y-140.134
X122.083Y-138.194
X122.083Y-142.044
X123.393Y-136.284
X123.393Y-140.134
X124.633Y-138.194
X124.633Y-142.044
X125.943Y-136.284
X125.943Y-140.134
X127.183Y-138.194
X127.183Y-142.044
X128.493Y-136.284
X128.493Y-140.134
X129.733Y-138.194
X129.733Y-142.044
X131.043Y-136.284
X131.043Y-140.134
X132.283Y-138.194
X132.283Y-142.044
X133.593Y-136.284
X133.593Y-140.134
X134.833Y-138.194
X134.833Y-142.044
X136.143Y-136.284
X136.143Y-140.134
X137.383Y-138.194
X137.383Y-142.044
X138.693Y-136.284
X138.693Y-140.134
X139.933Y-138.194
X139.933Y-142.044
X141.243Y-136.284
X141.243Y-140.134
X142.483Y-138.194
X142.483Y-142.044
X143.793Y-136.284
X143.793Y-140.134
X145.033Y-138.194
X145.033Y-142.044
X146.343Y-136.284
X146.343Y-140.134
X147.583Y-138.194
X147.583Y-142.044
X148.893Y-136.284
X148.893Y-140.134
X150.133Y-138.194
X150.133Y-142.044
X151.443Y-136.284
X151.443Y-140.134
X152.683Y-138.194
X152.683Y-142.044
X153.993Y-136.284
X153.993Y-140.134
X155.233Y-138.194
X155.233Y-142.044
X156.543Y-136.284
X156.543Y-140.134
X157.783Y-138.194
X157.783Y-142.044
X159.093Y-136.284
X159.093Y-140.134
T4
X117.543Y-46.104
X123.853Y-81.464
X123.933Y-46.144
X125.793Y-46.224
X125.833Y-43.644
X128.933Y-81.464
X129.603Y-43.684
X129.643Y-46.224
X136.113Y-82.104
X137.903Y-50.314
X141.233Y-82.104
X144.283Y-50.354
X161.433Y-82.174
X163.733Y-106.344
X165.913Y-117.384
X165.913Y-122.464
X166.153Y-91.224
X166.153Y-96.304
X166.313Y-106.344
X166.473Y-82.174
X168.853Y-106.344
T5
X115.273Y-111.484
X115.273Y-126.684
X117.823Y-111.484
X117.823Y-126.684
X120.373Y-111.484
X120.373Y-126.684
X122.923Y-111.484
X122.923Y-126.684
X125.473Y-111.484
X125.473Y-126.684
X128.023Y-111.484
X128.023Y-126.684
X130.573Y-111.484
X130.573Y-126.684
X133.123Y-111.484
X133.123Y-126.684
X135.673Y-111.484
X135.673Y-126.684
X138.223Y-111.484
X138.223Y-126.684
X140.773Y-111.484
X140.773Y-126.684
X143.323Y-111.484
X143.323Y-126.684
X145.873Y-111.484
X145.873Y-126.684
X148.423Y-111.484
X148.423Y-126.684
X150.973Y-111.484
X150.973Y-126.684
X153.523Y-111.484
X153.523Y-126.684
T6
X117.123Y-59.464
X117.123Y-62.254
X117.123Y-65.044
X117.123Y-67.834
X117.123Y-70.624
X117.123Y-73.414
X117.123Y-76.204
X117.123Y-78.994
X117.123Y-81.784
X117.123Y-84.574
X117.123Y-87.364
X117.123Y-90.154
X119.953Y-58.144
X119.953Y-60.934
X119.953Y-63.724
X119.953Y-66.514
X119.953Y-69.304
X119.953Y-72.094
X119.953Y-74.884
X119.953Y-77.674
X119.953Y-80.464
X119.953Y-83.254
X119.953Y-86.044
X119.953Y-88.834
X119.953Y-91.624
X123.873Y-55.184
X123.873Y-57.764
X123.873Y-60.344
X123.873Y-62.924
X123.873Y-65.504
X123.873Y-68.084
X123.873Y-70.664
X123.873Y-73.244
X123.873Y-75.824
X123.873Y-78.404
X131.493Y-55.184
X131.493Y-57.764
X131.493Y-60.344
X131.493Y-62.924
X131.493Y-65.504
X131.493Y-68.084
X131.493Y-70.664
X131.493Y-73.244
X131.493Y-75.824
X131.493Y-78.404
X136.213Y-55.224
X136.213Y-57.804
X136.213Y-60.384
X136.213Y-62.964
X136.213Y-65.544
X136.213Y-68.124
X136.213Y-70.704
X136.213Y-73.284
X136.213Y-75.864
X136.213Y-78.444
X143.833Y-55.224
X143.833Y-57.804
X143.833Y-60.384
X143.833Y-62.964
X143.833Y-65.544
X143.833Y-68.124
X143.833Y-70.704
X143.833Y-73.284
X143.833Y-75.864
X143.833Y-78.444
X161.483Y-50.304
X161.483Y-52.854
X161.483Y-55.404
X161.483Y-57.954
X161.483Y-60.504
X161.483Y-63.054
X161.483Y-65.604
X161.483Y-68.154
X161.483Y-70.704
X161.483Y-73.254
X161.483Y-75.804
X161.483Y-78.354
X169.103Y-50.304
X169.103Y-52.854
X169.103Y-55.404
X169.103Y-57.954
X169.103Y-60.504
X169.103Y-63.054
X169.103Y-65.604
X169.103Y-68.154
X169.103Y-70.704
X169.103Y-73.254
X169.103Y-75.804
X169.103Y-78.354
T7
X134.123Y-43.604
X137.423Y-43.604
X140.483Y-43.644
X143.533Y-43.684
X146.823Y-43.684
T8
X118.533Y-98.534
X118.653Y-51.264
T9
X112.023Y-139.174
X164.053Y-129.924
X164.053Y-139.404
T0
M30
