%TF.GenerationSoftware,KiCad,Pcbnew,(6.0.2)*%
%TF.CreationDate,2022-07-19T18:31:23-05:00*%
%TF.ProjectId,PXT6-3,50585436-2d33-42e6-9b69-6361645f7063,rev?*%
%TF.SameCoordinates,Original*%
%TF.FileFunction,Legend,Top*%
%TF.FilePolarity,Positive*%
%FSLAX46Y46*%
G04 Gerber Fmt 4.6, Leading zero omitted, Abs format (unit mm)*
G04 Created by KiCad (PCBNEW (6.0.2)) date 2022-07-19 18:31:23*
%MOMM*%
%LPD*%
G01*
G04 APERTURE LIST*
%ADD10C,0.200000*%
%ADD11C,0.150000*%
G04 APERTURE END LIST*
D10*
X163813750Y-79598800D02*
X165083750Y-78328800D01*
X135873750Y-44951600D02*
X135873750Y-42411600D01*
X138969450Y-42451300D02*
X141628450Y-42451300D01*
X125078750Y-79559100D02*
X125078750Y-53960700D01*
X163149050Y-82194200D02*
X161998150Y-82194200D01*
X135159450Y-44951600D02*
X132579750Y-44951600D01*
X165798150Y-120556300D02*
X165798150Y-121707200D01*
D11*
X146074000Y-69304000D02*
X146074000Y-71149000D01*
D10*
X136945350Y-92219400D02*
X136945350Y-90989100D01*
X136945350Y-92219400D02*
X157344750Y-92219400D01*
X145279750Y-42451300D02*
X147899150Y-42451300D01*
X152185350Y-123056600D02*
X141906350Y-123056600D01*
X118570050Y-47531300D02*
X118570050Y-44951600D01*
X145597250Y-92219400D02*
X145597250Y-100315700D01*
X116466650Y-115158800D02*
X125078750Y-115158800D01*
X125604650Y-82114800D02*
X124453750Y-82114800D01*
X126705950Y-116786000D02*
X126705950Y-122977200D01*
X122657850Y-94203800D02*
X122657850Y-55468800D01*
X142025350Y-42451300D02*
X144525650Y-42451300D01*
X139009150Y-51698500D02*
X139009150Y-49118800D01*
X145279750Y-44991300D02*
X145279750Y-42451300D01*
X137907750Y-80805200D02*
X137907750Y-83424500D01*
X142858750Y-49118800D02*
X142858750Y-51698500D01*
X124245350Y-45626300D02*
X126904450Y-45626300D01*
X138493150Y-44951600D02*
X135873750Y-44951600D01*
X147899150Y-42451300D02*
X147899150Y-44991300D01*
X163149050Y-83503900D02*
X163149050Y-82194200D01*
X127777550Y-100315700D02*
X127777550Y-92219400D01*
X126874650Y-80805200D02*
X126874650Y-83384800D01*
X128055350Y-45626300D02*
X130674750Y-45626300D01*
X114363150Y-56976900D02*
X114323450Y-92616300D01*
X151113750Y-118413200D02*
X152185350Y-118413200D01*
X127985950Y-82114800D02*
X126914350Y-82114800D01*
X142858750Y-51698500D02*
X139009150Y-51698500D01*
X164726650Y-94402200D02*
X167345950Y-94402200D01*
X167703150Y-79638500D02*
X167703150Y-48999700D01*
X164726650Y-93132200D02*
X167306350Y-93132200D01*
X135873750Y-42411600D02*
X138493150Y-42411600D01*
D11*
X146414000Y-58406000D02*
X146416000Y-60393000D01*
D10*
X141906350Y-123056600D02*
X141906350Y-115238200D01*
X137302550Y-53960700D02*
X142382550Y-53960700D01*
X164369450Y-108213500D02*
X168100050Y-108213500D01*
X139842550Y-78289100D02*
X141112550Y-79559100D01*
X113450350Y-110197900D02*
X157225650Y-110197900D01*
X124245350Y-44316600D02*
X126825050Y-44316600D01*
X125634450Y-118294100D02*
X126666350Y-118294100D01*
X125634450Y-119961000D02*
X125634450Y-118294100D01*
X125604650Y-80805200D02*
X125604650Y-83424500D01*
X166036350Y-94402200D02*
X166036350Y-95553200D01*
X116426950Y-122977200D02*
X116426950Y-115158800D01*
X126229750Y-79519400D02*
X127499750Y-78249400D01*
X127777550Y-92219400D02*
X145597250Y-92219400D01*
X136945350Y-101228500D02*
X136945350Y-92219400D01*
X165798150Y-118175000D02*
X165798150Y-119246600D01*
X156193750Y-120000700D02*
X156193750Y-118413200D01*
D11*
X158554000Y-69672000D02*
X158554000Y-69125000D01*
D10*
X167703150Y-48999700D02*
X162543750Y-48999700D01*
X164488450Y-120556300D02*
X167107850Y-120556300D01*
X140289050Y-82114800D02*
X139217450Y-82114800D01*
X132579750Y-44951600D02*
X132579750Y-42411600D01*
X138493150Y-42411600D02*
X138493150Y-44951600D01*
X142025350Y-45031000D02*
X142025350Y-42451300D01*
X157344750Y-92219400D02*
X157344750Y-101228500D01*
X125604650Y-83424500D02*
X125604650Y-82114800D01*
X112259750Y-101466600D02*
X112259750Y-48126600D01*
X145597250Y-100315700D02*
X127777550Y-100315700D01*
X122380050Y-47531300D02*
X118570050Y-47531300D01*
X162543750Y-48999700D02*
X162543750Y-79638500D01*
X152185350Y-116865400D02*
X152185350Y-123056600D01*
X166036350Y-92021000D02*
X166036350Y-93092600D01*
D11*
X148259000Y-58406000D02*
X146414000Y-58406000D01*
X157534540Y-70601306D02*
G75*
G03*
X158553540Y-69682306I68603J948373D01*
G01*
D10*
X144525650Y-45031000D02*
X142025350Y-45031000D01*
X139177750Y-80805200D02*
X139177750Y-83384800D01*
D11*
X159087000Y-58422500D02*
X157100000Y-58424500D01*
D10*
X127539450Y-78249400D02*
X128809450Y-79519400D01*
X156193750Y-118413200D02*
X157225650Y-118413200D01*
D11*
X159087000Y-60267500D02*
X159087000Y-58422500D01*
D10*
X130079450Y-79559100D02*
X125078750Y-79559100D01*
X162543750Y-79638500D02*
X167703150Y-79638500D01*
X122380050Y-44951600D02*
X122380050Y-47531300D01*
X142382550Y-53960700D02*
X142382550Y-79559100D01*
X130079450Y-53960700D02*
X130079450Y-79559100D01*
X150558150Y-115238200D02*
X152145650Y-116825700D01*
X163813750Y-79638500D02*
X163813750Y-79598800D01*
X125078750Y-53960700D02*
X130079450Y-53960700D01*
X139009150Y-49118800D02*
X142858750Y-49118800D01*
X144525650Y-42451300D02*
X144525650Y-45031000D01*
X164419050Y-80884500D02*
X164419050Y-83464200D01*
X123689750Y-101466600D02*
X112259750Y-101466600D01*
X168616050Y-129843200D02*
G75*
G03*
X168616050Y-129843200I-4564100J0D01*
G01*
X125078750Y-115158800D02*
X126666350Y-116746300D01*
X151113750Y-119961000D02*
X151113750Y-118413200D01*
X112259750Y-48126600D02*
X123689750Y-48126600D01*
D11*
X157539000Y-70598000D02*
X156999000Y-70597000D01*
D10*
X152185350Y-119961000D02*
X151113750Y-119961000D01*
X126229750Y-79559100D02*
X126229750Y-79519400D01*
X164488450Y-119286300D02*
X167068150Y-119286300D01*
D11*
X146074000Y-71149000D02*
X148061000Y-71147000D01*
D10*
X157225650Y-120000700D02*
X156193750Y-120000700D01*
X126666350Y-119961000D02*
X125634450Y-119961000D01*
X123689750Y-48126600D02*
X123689750Y-101466600D01*
X163149050Y-80884500D02*
X163149050Y-83503900D01*
X136945350Y-90989100D02*
X155995350Y-90989100D01*
X137907750Y-83424500D02*
X137907750Y-82114800D01*
X139802850Y-78289100D02*
X139842550Y-78289100D01*
X167345950Y-94402200D02*
X166036350Y-94402200D01*
X147899150Y-44991300D02*
X145279750Y-44991300D01*
X137907750Y-82114800D02*
X136756850Y-82114800D01*
X126666350Y-118294100D02*
X126666350Y-119961000D01*
X157225650Y-128017600D02*
X113450350Y-128017600D01*
X127499750Y-78249400D02*
X127539450Y-78249400D01*
X141945950Y-115238200D02*
X150558150Y-115238200D01*
X152185350Y-118413200D02*
X152185350Y-119961000D01*
X165530250Y-82194200D02*
X164458750Y-82194200D01*
X167107850Y-120556300D02*
X165798150Y-120556300D01*
X157225650Y-118413200D02*
X157225650Y-120000700D01*
X126705950Y-122977200D02*
X116426950Y-122977200D01*
X165083750Y-78328800D02*
X166393450Y-79638500D01*
X118570050Y-44951600D02*
X122380050Y-44951600D01*
X168095750Y-108243400D02*
G75*
G03*
X164391350Y-108243400I-1852200J1852200D01*
G01*
X137302550Y-79559100D02*
X137302550Y-53960700D01*
X135159450Y-42411600D02*
X135159450Y-44951600D01*
X142382550Y-79559100D02*
X137302550Y-79559100D01*
X141628450Y-42451300D02*
X141628450Y-44951600D01*
X157344750Y-101228500D02*
X136945350Y-101228500D01*
X155995350Y-90989100D02*
X157225650Y-92219400D01*
X138612250Y-79479700D02*
X139802850Y-78289100D01*
X138969450Y-44951600D02*
X138969450Y-42451300D01*
X141628450Y-44951600D02*
X138969450Y-44951600D01*
X122657850Y-55468800D02*
X114363150Y-56976900D01*
X157225650Y-110197900D02*
X157225650Y-128017600D01*
X114323450Y-92616300D02*
X122657850Y-94203800D01*
X113450350Y-128017600D02*
X113450350Y-110197900D01*
X132579750Y-42411600D02*
X135159450Y-42411600D01*
X128055350Y-44316600D02*
X130674750Y-44316600D01*
D11*
X121491380Y-95068476D02*
X121491380Y-95639904D01*
X121491380Y-95354190D02*
X120491380Y-95354190D01*
X120634238Y-95449428D01*
X120729476Y-95544666D01*
X120777095Y-95639904D01*
X120491380Y-94735142D02*
X120491380Y-94116095D01*
X120872333Y-94449428D01*
X120872333Y-94306571D01*
X120919952Y-94211333D01*
X120967571Y-94163714D01*
X121062809Y-94116095D01*
X121300904Y-94116095D01*
X121396142Y-94163714D01*
X121443761Y-94211333D01*
X121491380Y-94306571D01*
X121491380Y-94592285D01*
X121443761Y-94687523D01*
X121396142Y-94735142D01*
X162145285Y-105955619D02*
X162716714Y-105955619D01*
X162431000Y-105955619D02*
X162431000Y-106955619D01*
X162526238Y-106812761D01*
X162621476Y-106717523D01*
X162716714Y-106669904D01*
X154823619Y-112990714D02*
X154823619Y-112419285D01*
X154823619Y-112705000D02*
X155823619Y-112705000D01*
X155680761Y-112609761D01*
X155585523Y-112514523D01*
X155537904Y-112419285D01*
X115841380Y-54993476D02*
X115841380Y-55564904D01*
X115841380Y-55279190D02*
X114841380Y-55279190D01*
X114984238Y-55374428D01*
X115079476Y-55469666D01*
X115127095Y-55564904D01*
X115174714Y-54136333D02*
X115841380Y-54136333D01*
X114793761Y-54374428D02*
X115508047Y-54612523D01*
X115508047Y-53993476D01*
X121680380Y-54380285D02*
X121680380Y-54951714D01*
X121680380Y-54666000D02*
X120680380Y-54666000D01*
X120823238Y-54761238D01*
X120918476Y-54856476D01*
X120966095Y-54951714D01*
X152031285Y-72709619D02*
X152602714Y-72709619D01*
X152317000Y-72709619D02*
X152317000Y-73709619D01*
X152412238Y-73566761D01*
X152507476Y-73471523D01*
X152602714Y-73423904D01*
X114716619Y-95676904D02*
X114669000Y-95629285D01*
X114621380Y-95534047D01*
X114621380Y-95295952D01*
X114669000Y-95200714D01*
X114716619Y-95153095D01*
X114811857Y-95105476D01*
X114907095Y-95105476D01*
X115049952Y-95153095D01*
X115621380Y-95724523D01*
X115621380Y-95105476D01*
X114621380Y-94200714D02*
X114621380Y-94676904D01*
X115097571Y-94724523D01*
X115049952Y-94676904D01*
X115002333Y-94581666D01*
X115002333Y-94343571D01*
X115049952Y-94248333D01*
X115097571Y-94200714D01*
X115192809Y-94153095D01*
X115430904Y-94153095D01*
X115526142Y-94200714D01*
X115573761Y-94248333D01*
X115621380Y-94343571D01*
X115621380Y-94581666D01*
X115573761Y-94676904D01*
X115526142Y-94724523D01*
M02*
