%TF.GenerationSoftware,KiCad,Pcbnew,(6.0.2)*%
%TF.CreationDate,2022-07-19T18:31:23-05:00*%
%TF.ProjectId,PXT6-3,50585436-2d33-42e6-9b69-6361645f7063,rev?*%
%TF.SameCoordinates,Original*%
%TF.FileFunction,Soldermask,Bot*%
%TF.FilePolarity,Negative*%
%FSLAX46Y46*%
G04 Gerber Fmt 4.6, Leading zero omitted, Abs format (unit mm)*
G04 Created by KiCad (PCBNEW (6.0.2)) date 2022-07-19 18:31:23*
%MOMM*%
%LPD*%
G01*
G04 APERTURE LIST*
%ADD10C,0.635000*%
%ADD11C,0.750000*%
%ADD12C,0.675000*%
%ADD13C,0.695000*%
%ADD14C,0.975000*%
%ADD15C,1.885000*%
%ADD16C,2.080000*%
%ADD17C,1.900000*%
G04 APERTURE END LIST*
D10*
X126259750Y-136285000D02*
G75*
G03*
X126259750Y-136285000I-317500J0D01*
G01*
D11*
X131864750Y-75822200D02*
G75*
G03*
X131864750Y-75822200I-375000J0D01*
G01*
D12*
X138563450Y-111480400D02*
G75*
G03*
X138563450Y-111480400I-337500J0D01*
G01*
D11*
X169482550Y-55406600D02*
G75*
G03*
X169482550Y-55406600I-375000J0D01*
G01*
D10*
X124950050Y-138190000D02*
G75*
G03*
X124950050Y-138190000I-317500J0D01*
G01*
D11*
X131864750Y-78402200D02*
G75*
G03*
X131864750Y-78402200I-375000J0D01*
G01*
D10*
X127500050Y-142039700D02*
G75*
G03*
X127500050Y-142039700I-317500J0D01*
G01*
D13*
X120298450Y-60938500D02*
G75*
G03*
X120298450Y-60938500I-347500J0D01*
G01*
D14*
X137909150Y-43602200D02*
G75*
G03*
X137909150Y-43602200I-487500J0D01*
G01*
D11*
X144207550Y-70701900D02*
G75*
G03*
X144207550Y-70701900I-375000J0D01*
G01*
D10*
X141559750Y-136285000D02*
G75*
G03*
X141559750Y-136285000I-317500J0D01*
G01*
D13*
X120298450Y-86048500D02*
G75*
G03*
X120298450Y-86048500I-347500J0D01*
G01*
D11*
X144207550Y-57801900D02*
G75*
G03*
X144207550Y-57801900I-375000J0D01*
G01*
X144207550Y-60381900D02*
G75*
G03*
X144207550Y-60381900I-375000J0D01*
G01*
D12*
X146213450Y-126680700D02*
G75*
G03*
X146213450Y-126680700I-337500J0D01*
G01*
D11*
X161862550Y-52856600D02*
G75*
G03*
X161862550Y-52856600I-375000J0D01*
G01*
D13*
X117474750Y-84574100D02*
G75*
G03*
X117474750Y-84574100I-347500J0D01*
G01*
D12*
X129980350Y-46221600D02*
G75*
G03*
X129980350Y-46221600I-337500J0D01*
G01*
D10*
X137700050Y-138190000D02*
G75*
G03*
X137700050Y-138190000I-317500J0D01*
G01*
X151759750Y-140134700D02*
G75*
G03*
X151759750Y-140134700I-317500J0D01*
G01*
D12*
X153863450Y-126680700D02*
G75*
G03*
X153863450Y-126680700I-337500J0D01*
G01*
D13*
X117474750Y-65044100D02*
G75*
G03*
X117474750Y-65044100I-347500J0D01*
G01*
D12*
X148763450Y-111480400D02*
G75*
G03*
X148763450Y-111480400I-337500J0D01*
G01*
X118163450Y-126680700D02*
G75*
G03*
X118163450Y-126680700I-337500J0D01*
G01*
X136013450Y-111480400D02*
G75*
G03*
X136013450Y-111480400I-337500J0D01*
G01*
X118163450Y-111480400D02*
G75*
G03*
X118163450Y-111480400I-337500J0D01*
G01*
D13*
X120298450Y-72098500D02*
G75*
G03*
X120298450Y-72098500I-347500J0D01*
G01*
D11*
X136587550Y-75861900D02*
G75*
G03*
X136587550Y-75861900I-375000J0D01*
G01*
X161862550Y-60506600D02*
G75*
G03*
X161862550Y-60506600I-375000J0D01*
G01*
D12*
X123263450Y-126680700D02*
G75*
G03*
X123263450Y-126680700I-337500J0D01*
G01*
X129940650Y-43681600D02*
G75*
G03*
X129940650Y-43681600I-337500J0D01*
G01*
D10*
X118609750Y-140134700D02*
G75*
G03*
X118609750Y-140134700I-317500J0D01*
G01*
X159409750Y-136285000D02*
G75*
G03*
X159409750Y-136285000I-317500J0D01*
G01*
D12*
X120713450Y-126680700D02*
G75*
G03*
X120713450Y-126680700I-337500J0D01*
G01*
D10*
X128809750Y-140134700D02*
G75*
G03*
X128809750Y-140134700I-317500J0D01*
G01*
X124950050Y-142039700D02*
G75*
G03*
X124950050Y-142039700I-317500J0D01*
G01*
X141559750Y-140134700D02*
G75*
G03*
X141559750Y-140134700I-317500J0D01*
G01*
D11*
X161862550Y-65606600D02*
G75*
G03*
X161862550Y-65606600I-375000J0D01*
G01*
X136587550Y-73281900D02*
G75*
G03*
X136587550Y-73281900I-375000J0D01*
G01*
D12*
X141113450Y-126680700D02*
G75*
G03*
X141113450Y-126680700I-337500J0D01*
G01*
X141569150Y-82099100D02*
G75*
G03*
X141569150Y-82099100I-337500J0D01*
G01*
D13*
X117474750Y-70624100D02*
G75*
G03*
X117474750Y-70624100I-347500J0D01*
G01*
D12*
X166810350Y-82178500D02*
G75*
G03*
X166810350Y-82178500I-337500J0D01*
G01*
D11*
X131864750Y-70662200D02*
G75*
G03*
X131864750Y-70662200I-375000J0D01*
G01*
D15*
X164994450Y-129922600D02*
G75*
G03*
X164994450Y-129922600I-942500J0D01*
G01*
D11*
X131864750Y-60342200D02*
G75*
G03*
X131864750Y-60342200I-375000J0D01*
G01*
X144207550Y-65541900D02*
G75*
G03*
X144207550Y-65541900I-375000J0D01*
G01*
D12*
X143663450Y-126680700D02*
G75*
G03*
X143663450Y-126680700I-337500J0D01*
G01*
X123263450Y-111480400D02*
G75*
G03*
X123263450Y-111480400I-337500J0D01*
G01*
D10*
X144109750Y-136285000D02*
G75*
G03*
X144109750Y-136285000I-317500J0D01*
G01*
D11*
X169482550Y-60506600D02*
G75*
G03*
X169482550Y-60506600I-375000J0D01*
G01*
D16*
X165091950Y-139407900D02*
G75*
G03*
X165091950Y-139407900I-1040000J0D01*
G01*
D10*
X136459750Y-136285000D02*
G75*
G03*
X136459750Y-136285000I-317500J0D01*
G01*
X155550050Y-142039700D02*
G75*
G03*
X155550050Y-142039700I-317500J0D01*
G01*
X145350050Y-142039700D02*
G75*
G03*
X145350050Y-142039700I-317500J0D01*
G01*
D11*
X169482550Y-78356600D02*
G75*
G03*
X169482550Y-78356600I-375000J0D01*
G01*
X161862550Y-68156600D02*
G75*
G03*
X161862550Y-68156600I-375000J0D01*
G01*
D13*
X120298450Y-74888500D02*
G75*
G03*
X120298450Y-74888500I-347500J0D01*
G01*
D11*
X124244750Y-73242200D02*
G75*
G03*
X124244750Y-73242200I-375000J0D01*
G01*
D10*
X158100050Y-142039700D02*
G75*
G03*
X158100050Y-142039700I-317500J0D01*
G01*
D11*
X136587550Y-62961900D02*
G75*
G03*
X136587550Y-62961900I-375000J0D01*
G01*
X124244750Y-68082200D02*
G75*
G03*
X124244750Y-68082200I-375000J0D01*
G01*
D12*
X124265350Y-46142200D02*
G75*
G03*
X124265350Y-46142200I-337500J0D01*
G01*
D10*
X133909750Y-136285000D02*
G75*
G03*
X133909750Y-136285000I-317500J0D01*
G01*
D11*
X161862550Y-50306600D02*
G75*
G03*
X161862550Y-50306600I-375000J0D01*
G01*
D14*
X147315050Y-43681600D02*
G75*
G03*
X147315050Y-43681600I-487500J0D01*
G01*
D11*
X161862550Y-63056600D02*
G75*
G03*
X161862550Y-63056600I-375000J0D01*
G01*
D12*
X146213450Y-111480400D02*
G75*
G03*
X146213450Y-111480400I-337500J0D01*
G01*
D11*
X161862550Y-73256600D02*
G75*
G03*
X161862550Y-73256600I-375000J0D01*
G01*
X169482550Y-70706600D02*
G75*
G03*
X169482550Y-70706600I-375000J0D01*
G01*
D12*
X125813450Y-111480400D02*
G75*
G03*
X125813450Y-111480400I-337500J0D01*
G01*
D11*
X144207550Y-75861900D02*
G75*
G03*
X144207550Y-75861900I-375000J0D01*
G01*
X169482550Y-57956600D02*
G75*
G03*
X169482550Y-57956600I-375000J0D01*
G01*
D14*
X144020950Y-43681600D02*
G75*
G03*
X144020950Y-43681600I-487500J0D01*
G01*
X140965050Y-43641900D02*
G75*
G03*
X140965050Y-43641900I-487500J0D01*
G01*
D13*
X117474750Y-81784100D02*
G75*
G03*
X117474750Y-81784100I-347500J0D01*
G01*
D11*
X124244750Y-65502200D02*
G75*
G03*
X124244750Y-65502200I-375000J0D01*
G01*
D10*
X156859750Y-140134700D02*
G75*
G03*
X156859750Y-140134700I-317500J0D01*
G01*
D12*
X115613450Y-111480400D02*
G75*
G03*
X115613450Y-111480400I-337500J0D01*
G01*
D10*
X149209750Y-136285000D02*
G75*
G03*
X149209750Y-136285000I-317500J0D01*
G01*
D12*
X138235350Y-50309400D02*
G75*
G03*
X138235350Y-50309400I-337500J0D01*
G01*
X148763450Y-126680700D02*
G75*
G03*
X148763450Y-126680700I-337500J0D01*
G01*
D10*
X153000050Y-138190000D02*
G75*
G03*
X153000050Y-138190000I-317500J0D01*
G01*
D12*
X126130650Y-46221600D02*
G75*
G03*
X126130650Y-46221600I-337500J0D01*
G01*
D10*
X139009750Y-136285000D02*
G75*
G03*
X139009750Y-136285000I-317500J0D01*
G01*
X121159750Y-136285000D02*
G75*
G03*
X121159750Y-136285000I-317500J0D01*
G01*
X151759750Y-136285000D02*
G75*
G03*
X151759750Y-136285000I-317500J0D01*
G01*
D12*
X166254750Y-122461300D02*
G75*
G03*
X166254750Y-122461300I-337500J0D01*
G01*
D10*
X145350050Y-138190000D02*
G75*
G03*
X145350050Y-138190000I-317500J0D01*
G01*
X135150050Y-142039700D02*
G75*
G03*
X135150050Y-142039700I-317500J0D01*
G01*
D13*
X117474750Y-78994100D02*
G75*
G03*
X117474750Y-78994100I-347500J0D01*
G01*
D10*
X121159750Y-140134700D02*
G75*
G03*
X121159750Y-140134700I-317500J0D01*
G01*
X132600050Y-138190000D02*
G75*
G03*
X132600050Y-138190000I-317500J0D01*
G01*
X128809750Y-136285000D02*
G75*
G03*
X128809750Y-136285000I-317500J0D01*
G01*
D13*
X117474750Y-87364100D02*
G75*
G03*
X117474750Y-87364100I-347500J0D01*
G01*
D12*
X125813450Y-126680700D02*
G75*
G03*
X125813450Y-126680700I-337500J0D01*
G01*
D10*
X132600050Y-142039700D02*
G75*
G03*
X132600050Y-142039700I-317500J0D01*
G01*
D16*
X113061650Y-139169700D02*
G75*
G03*
X113061650Y-139169700I-1040000J0D01*
G01*
D11*
X131864750Y-68082200D02*
G75*
G03*
X131864750Y-68082200I-375000J0D01*
G01*
D10*
X130050050Y-142039700D02*
G75*
G03*
X130050050Y-142039700I-317500J0D01*
G01*
D11*
X161862550Y-70706600D02*
G75*
G03*
X161862550Y-70706600I-375000J0D01*
G01*
D13*
X117474750Y-59464100D02*
G75*
G03*
X117474750Y-59464100I-347500J0D01*
G01*
D10*
X133909750Y-140134700D02*
G75*
G03*
X133909750Y-140134700I-317500J0D01*
G01*
D11*
X136587550Y-70701900D02*
G75*
G03*
X136587550Y-70701900I-375000J0D01*
G01*
X136587550Y-57801900D02*
G75*
G03*
X136587550Y-57801900I-375000J0D01*
G01*
X131864750Y-62922200D02*
G75*
G03*
X131864750Y-62922200I-375000J0D01*
G01*
D12*
X166492850Y-96307200D02*
G75*
G03*
X166492850Y-96307200I-337500J0D01*
G01*
X144625050Y-50349100D02*
G75*
G03*
X144625050Y-50349100I-337500J0D01*
G01*
D11*
X161862550Y-57956600D02*
G75*
G03*
X161862550Y-57956600I-375000J0D01*
G01*
D12*
X130913450Y-111480400D02*
G75*
G03*
X130913450Y-111480400I-337500J0D01*
G01*
X166651650Y-106348200D02*
G75*
G03*
X166651650Y-106348200I-337500J0D01*
G01*
D11*
X131864750Y-65502200D02*
G75*
G03*
X131864750Y-65502200I-375000J0D01*
G01*
D12*
X164071950Y-106348200D02*
G75*
G03*
X164071950Y-106348200I-337500J0D01*
G01*
D10*
X146659750Y-136285000D02*
G75*
G03*
X146659750Y-136285000I-317500J0D01*
G01*
X135150050Y-138190000D02*
G75*
G03*
X135150050Y-138190000I-317500J0D01*
G01*
X127500050Y-138190000D02*
G75*
G03*
X127500050Y-138190000I-317500J0D01*
G01*
D12*
X136449450Y-82099100D02*
G75*
G03*
X136449450Y-82099100I-337500J0D01*
G01*
D13*
X117474750Y-67834100D02*
G75*
G03*
X117474750Y-67834100I-347500J0D01*
G01*
D10*
X126259750Y-140134700D02*
G75*
G03*
X126259750Y-140134700I-317500J0D01*
G01*
D13*
X120298450Y-80468500D02*
G75*
G03*
X120298450Y-80468500I-347500J0D01*
G01*
X117474750Y-62254100D02*
G75*
G03*
X117474750Y-62254100I-347500J0D01*
G01*
D10*
X123709750Y-140134700D02*
G75*
G03*
X123709750Y-140134700I-317500J0D01*
G01*
X130050050Y-138190000D02*
G75*
G03*
X130050050Y-138190000I-317500J0D01*
G01*
X150450050Y-138190000D02*
G75*
G03*
X150450050Y-138190000I-317500J0D01*
G01*
D12*
X129265950Y-81464100D02*
G75*
G03*
X129265950Y-81464100I-337500J0D01*
G01*
X141113450Y-111480400D02*
G75*
G03*
X141113450Y-111480400I-337500J0D01*
G01*
D11*
X124244750Y-75822200D02*
G75*
G03*
X124244750Y-75822200I-375000J0D01*
G01*
X161862550Y-55406600D02*
G75*
G03*
X161862550Y-55406600I-375000J0D01*
G01*
X124244750Y-62922200D02*
G75*
G03*
X124244750Y-62922200I-375000J0D01*
G01*
X136587550Y-55221900D02*
G75*
G03*
X136587550Y-55221900I-375000J0D01*
G01*
X136587550Y-68121900D02*
G75*
G03*
X136587550Y-68121900I-375000J0D01*
G01*
X169482550Y-73256600D02*
G75*
G03*
X169482550Y-73256600I-375000J0D01*
G01*
D12*
X151313450Y-111480400D02*
G75*
G03*
X151313450Y-111480400I-337500J0D01*
G01*
D10*
X119850050Y-138190000D02*
G75*
G03*
X119850050Y-138190000I-317500J0D01*
G01*
X147900050Y-138190000D02*
G75*
G03*
X147900050Y-138190000I-317500J0D01*
G01*
X122400050Y-138190000D02*
G75*
G03*
X122400050Y-138190000I-317500J0D01*
G01*
X131359750Y-140134700D02*
G75*
G03*
X131359750Y-140134700I-317500J0D01*
G01*
D11*
X169482550Y-65606600D02*
G75*
G03*
X169482550Y-65606600I-375000J0D01*
G01*
D12*
X120713450Y-111480400D02*
G75*
G03*
X120713450Y-111480400I-337500J0D01*
G01*
D11*
X169482550Y-52856600D02*
G75*
G03*
X169482550Y-52856600I-375000J0D01*
G01*
X144207550Y-62961900D02*
G75*
G03*
X144207550Y-62961900I-375000J0D01*
G01*
D12*
X115613450Y-126680700D02*
G75*
G03*
X115613450Y-126680700I-337500J0D01*
G01*
X143663450Y-111480400D02*
G75*
G03*
X143663450Y-111480400I-337500J0D01*
G01*
D10*
X122400050Y-142039700D02*
G75*
G03*
X122400050Y-142039700I-317500J0D01*
G01*
D12*
X166254750Y-117381300D02*
G75*
G03*
X166254750Y-117381300I-337500J0D01*
G01*
D11*
X124244750Y-78402200D02*
G75*
G03*
X124244750Y-78402200I-375000J0D01*
G01*
X124244750Y-57762200D02*
G75*
G03*
X124244750Y-57762200I-375000J0D01*
G01*
D10*
X154309750Y-136285000D02*
G75*
G03*
X154309750Y-136285000I-317500J0D01*
G01*
D11*
X136587550Y-65541900D02*
G75*
G03*
X136587550Y-65541900I-375000J0D01*
G01*
D13*
X120298450Y-66518500D02*
G75*
G03*
X120298450Y-66518500I-347500J0D01*
G01*
D12*
X130913450Y-126680700D02*
G75*
G03*
X130913450Y-126680700I-337500J0D01*
G01*
X151313450Y-126680700D02*
G75*
G03*
X151313450Y-126680700I-337500J0D01*
G01*
X166492850Y-91227200D02*
G75*
G03*
X166492850Y-91227200I-337500J0D01*
G01*
D11*
X169482550Y-50306600D02*
G75*
G03*
X169482550Y-50306600I-375000J0D01*
G01*
D13*
X120298450Y-63728500D02*
G75*
G03*
X120298450Y-63728500I-347500J0D01*
G01*
X120298450Y-69308500D02*
G75*
G03*
X120298450Y-69308500I-347500J0D01*
G01*
D11*
X124244750Y-60342200D02*
G75*
G03*
X124244750Y-60342200I-375000J0D01*
G01*
D13*
X120298450Y-77678500D02*
G75*
G03*
X120298450Y-77678500I-347500J0D01*
G01*
D11*
X136587550Y-78441900D02*
G75*
G03*
X136587550Y-78441900I-375000J0D01*
G01*
D13*
X117474750Y-73414100D02*
G75*
G03*
X117474750Y-73414100I-347500J0D01*
G01*
D12*
X136013450Y-126680700D02*
G75*
G03*
X136013450Y-126680700I-337500J0D01*
G01*
D13*
X117474750Y-90154100D02*
G75*
G03*
X117474750Y-90154100I-347500J0D01*
G01*
X117474750Y-76204100D02*
G75*
G03*
X117474750Y-76204100I-347500J0D01*
G01*
D17*
X119599450Y-51261900D02*
G75*
G03*
X119599450Y-51261900I-950000J0D01*
G01*
D11*
X169482550Y-63056600D02*
G75*
G03*
X169482550Y-63056600I-375000J0D01*
G01*
X144207550Y-78441900D02*
G75*
G03*
X144207550Y-78441900I-375000J0D01*
G01*
D10*
X158100050Y-138190000D02*
G75*
G03*
X158100050Y-138190000I-317500J0D01*
G01*
D13*
X120298450Y-83258500D02*
G75*
G03*
X120298450Y-83258500I-347500J0D01*
G01*
D10*
X144109750Y-140134700D02*
G75*
G03*
X144109750Y-140134700I-317500J0D01*
G01*
X140250050Y-142039700D02*
G75*
G03*
X140250050Y-142039700I-317500J0D01*
G01*
X137700050Y-142039700D02*
G75*
G03*
X137700050Y-142039700I-317500J0D01*
G01*
X153000050Y-142039700D02*
G75*
G03*
X153000050Y-142039700I-317500J0D01*
G01*
D11*
X131864750Y-57762200D02*
G75*
G03*
X131864750Y-57762200I-375000J0D01*
G01*
D12*
X133463450Y-111480400D02*
G75*
G03*
X133463450Y-111480400I-337500J0D01*
G01*
D10*
X117300050Y-142039700D02*
G75*
G03*
X117300050Y-142039700I-317500J0D01*
G01*
X119850050Y-142039700D02*
G75*
G03*
X119850050Y-142039700I-317500J0D01*
G01*
D11*
X161862550Y-75806600D02*
G75*
G03*
X161862550Y-75806600I-375000J0D01*
G01*
X136587550Y-60381900D02*
G75*
G03*
X136587550Y-60381900I-375000J0D01*
G01*
D10*
X139009750Y-140134700D02*
G75*
G03*
X139009750Y-140134700I-317500J0D01*
G01*
D11*
X131864750Y-73242200D02*
G75*
G03*
X131864750Y-73242200I-375000J0D01*
G01*
D10*
X131359750Y-136285000D02*
G75*
G03*
X131359750Y-136285000I-317500J0D01*
G01*
X155550050Y-138190000D02*
G75*
G03*
X155550050Y-138190000I-317500J0D01*
G01*
D12*
X138563450Y-126680700D02*
G75*
G03*
X138563450Y-126680700I-337500J0D01*
G01*
D11*
X144207550Y-73281900D02*
G75*
G03*
X144207550Y-73281900I-375000J0D01*
G01*
X131864750Y-55182200D02*
G75*
G03*
X131864750Y-55182200I-375000J0D01*
G01*
D10*
X118609750Y-136285000D02*
G75*
G03*
X118609750Y-136285000I-317500J0D01*
G01*
X159409750Y-140134700D02*
G75*
G03*
X159409750Y-140134700I-317500J0D01*
G01*
D11*
X124244750Y-55182200D02*
G75*
G03*
X124244750Y-55182200I-375000J0D01*
G01*
D10*
X142800050Y-142039700D02*
G75*
G03*
X142800050Y-142039700I-317500J0D01*
G01*
D12*
X124185950Y-81464100D02*
G75*
G03*
X124185950Y-81464100I-337500J0D01*
G01*
D13*
X120298450Y-88838500D02*
G75*
G03*
X120298450Y-88838500I-347500J0D01*
G01*
D12*
X169191650Y-106348200D02*
G75*
G03*
X169191650Y-106348200I-337500J0D01*
G01*
D10*
X146659750Y-140134700D02*
G75*
G03*
X146659750Y-140134700I-317500J0D01*
G01*
D11*
X161862550Y-78356600D02*
G75*
G03*
X161862550Y-78356600I-375000J0D01*
G01*
D12*
X128363450Y-126680700D02*
G75*
G03*
X128363450Y-126680700I-337500J0D01*
G01*
D13*
X120298450Y-58148500D02*
G75*
G03*
X120298450Y-58148500I-347500J0D01*
G01*
D10*
X147900050Y-142039700D02*
G75*
G03*
X147900050Y-142039700I-317500J0D01*
G01*
D12*
X128363450Y-111480400D02*
G75*
G03*
X128363450Y-111480400I-337500J0D01*
G01*
D10*
X140250050Y-138190000D02*
G75*
G03*
X140250050Y-138190000I-317500J0D01*
G01*
D12*
X117875650Y-46102600D02*
G75*
G03*
X117875650Y-46102600I-337500J0D01*
G01*
D11*
X124244750Y-70662200D02*
G75*
G03*
X124244750Y-70662200I-375000J0D01*
G01*
D14*
X134615050Y-43602300D02*
G75*
G03*
X134615050Y-43602300I-487500J0D01*
G01*
D10*
X117300050Y-138190000D02*
G75*
G03*
X117300050Y-138190000I-317500J0D01*
G01*
D12*
X133463450Y-126680700D02*
G75*
G03*
X133463450Y-126680700I-337500J0D01*
G01*
X153863450Y-111480400D02*
G75*
G03*
X153863450Y-111480400I-337500J0D01*
G01*
D11*
X144207550Y-55221900D02*
G75*
G03*
X144207550Y-55221900I-375000J0D01*
G01*
X144207550Y-68121900D02*
G75*
G03*
X144207550Y-68121900I-375000J0D01*
G01*
D10*
X123709750Y-136285000D02*
G75*
G03*
X123709750Y-136285000I-317500J0D01*
G01*
X150450050Y-142039700D02*
G75*
G03*
X150450050Y-142039700I-317500J0D01*
G01*
X136459750Y-140134700D02*
G75*
G03*
X136459750Y-140134700I-317500J0D01*
G01*
X156859750Y-136285000D02*
G75*
G03*
X156859750Y-136285000I-317500J0D01*
G01*
D11*
X169482550Y-68156600D02*
G75*
G03*
X169482550Y-68156600I-375000J0D01*
G01*
D12*
X126170350Y-43641900D02*
G75*
G03*
X126170350Y-43641900I-337500J0D01*
G01*
D10*
X149209750Y-140134700D02*
G75*
G03*
X149209750Y-140134700I-317500J0D01*
G01*
D12*
X161770050Y-82178500D02*
G75*
G03*
X161770050Y-82178500I-337500J0D01*
G01*
D11*
X169482550Y-75806600D02*
G75*
G03*
X169482550Y-75806600I-375000J0D01*
G01*
D17*
X119480350Y-98529700D02*
G75*
G03*
X119480350Y-98529700I-950000J0D01*
G01*
D10*
X154309750Y-140134700D02*
G75*
G03*
X154309750Y-140134700I-317500J0D01*
G01*
D13*
X120298450Y-91628500D02*
G75*
G03*
X120298450Y-91628500I-347500J0D01*
G01*
D10*
X142800050Y-138190000D02*
G75*
G03*
X142800050Y-138190000I-317500J0D01*
G01*
M02*
